<svg width="867" height="1417" viewBox="0 0 867 1417" fill="none" xmlns="http://www.w3.org/2000/svg">
<path d="M411.267 14C411.267 21.3638 417.236 27.3333 424.6 27.3333C431.964 27.3333 437.933 21.3638 437.933 14C437.933 6.6362 431.964 0.666667 424.6 0.666667C417.236 0.666667 411.267 6.6362 411.267 14ZM858.79 620.225L856.481 619.266L856.481 619.266L858.79 620.225ZM3.68101 869.345L6.18056 869.392L3.68101 869.345ZM335.617 1414L336.886 1411.85C336.006 1411.33 335.129 1410.81 334.254 1410.29L332.983 1412.45L331.713 1414.6C332.589 1415.12 333.467 1415.63 334.348 1416.15L335.617 1414ZM327.757 1409.36L329.03 1407.21C327.298 1406.18 325.575 1405.16 323.862 1404.14L322.585 1406.29L321.308 1408.44C323.024 1409.46 324.749 1410.48 326.483 1411.51L327.757 1409.36ZM317.467 1403.24L318.747 1401.1C317.051 1400.08 315.364 1399.08 313.687 1398.07L312.403 1400.22L311.119 1402.36C312.799 1403.37 314.488 1404.38 316.186 1405.39L317.467 1403.24ZM307.392 1397.21L308.68 1395.07C306.938 1394.02 305.207 1392.98 303.485 1391.94L302.193 1394.08L300.902 1396.22C302.626 1397.26 304.361 1398.31 306.105 1399.36L307.392 1397.21ZM297.02 1390.95L298.315 1388.82C296.602 1387.78 294.899 1386.74 293.205 1385.71L291.905 1387.85L290.605 1389.98C292.302 1391.02 294.008 1392.05 295.724 1393.09L297.02 1390.95ZM286.849 1384.76L288.153 1382.63C286.479 1381.61 284.814 1380.59 283.16 1379.57L281.851 1381.7L280.542 1383.83C282.2 1384.85 283.867 1385.87 285.544 1386.9L286.849 1384.76ZM276.757 1378.56L278.071 1376.43C276.344 1375.37 274.627 1374.3 272.922 1373.25L271.603 1375.37L270.284 1377.49C271.993 1378.55 273.713 1379.62 275.443 1380.69L276.757 1378.56ZM266.512 1372.2L267.836 1370.08C266.152 1369.03 264.478 1367.98 262.815 1366.93L261.485 1369.05L260.155 1371.17C261.822 1372.21 263.5 1373.26 265.188 1374.32L266.512 1372.2ZM256.52 1365.92L257.856 1363.81C256.166 1362.74 254.487 1361.68 252.819 1360.61L251.477 1362.72L250.135 1364.83C251.808 1365.9 253.491 1366.96 255.185 1368.04L256.52 1365.92ZM246.367 1359.46L247.715 1357.36C246.025 1356.28 244.347 1355.2 242.68 1354.12L241.325 1356.22L239.97 1358.32C241.642 1359.4 243.324 1360.48 245.018 1361.57L246.367 1359.46ZM236.353 1353L237.715 1350.91C236.071 1349.84 234.438 1348.78 232.817 1347.71L231.448 1349.81L230.079 1351.9C231.705 1352.96 233.342 1354.03 234.991 1355.1L236.353 1353ZM226.408 1346.49L227.785 1344.41C226.096 1343.29 224.42 1342.18 222.757 1341.08L221.372 1343.16L219.987 1345.24C221.656 1346.35 223.337 1347.46 225.031 1348.58L226.408 1346.49ZM216.41 1339.84L217.804 1337.77C216.165 1336.67 214.539 1335.57 212.925 1334.48L211.523 1336.55L210.121 1338.62C211.74 1339.71 213.373 1340.81 215.017 1341.92L216.41 1339.84ZM206.646 1333.23L208.057 1331.16C206.378 1330.02 204.712 1328.87 203.059 1327.73L201.638 1329.79L200.218 1331.84C201.877 1332.99 203.549 1334.14 205.235 1335.29L206.646 1333.23ZM196.712 1326.37L198.143 1324.32C196.517 1323.18 194.905 1322.05 193.307 1320.92L191.865 1322.96L190.424 1325.01C192.03 1326.14 193.648 1327.28 195.281 1328.42L196.712 1326.37ZM187.098 1319.58L188.55 1317.55C186.893 1316.36 185.251 1315.18 183.623 1314.01L182.159 1316.04L180.695 1318.06C182.331 1319.24 183.981 1320.43 185.646 1321.62L187.098 1319.58ZM177.296 1312.5L178.772 1310.48C177.17 1309.31 175.582 1308.14 174.008 1306.97L172.52 1308.98L171.031 1310.99C172.613 1312.16 174.209 1313.34 175.82 1314.52L177.296 1312.5ZM167.829 1305.48L169.331 1303.48C167.707 1302.26 166.1 1301.05 164.507 1299.83L162.992 1301.82L161.476 1303.81C163.078 1305.03 164.695 1306.26 166.327 1307.48L167.829 1305.48ZM158.227 1298.16L159.757 1296.19C158.189 1294.97 156.637 1293.76 155.1 1292.55L153.555 1294.52L152.01 1296.48C153.557 1297.7 155.119 1298.92 156.697 1300.14L158.227 1298.16ZM148.954 1290.87L150.515 1288.92C148.927 1287.65 147.357 1286.39 145.803 1285.12L144.226 1287.06L142.649 1289C144.214 1290.27 145.795 1291.55 147.393 1292.83L148.954 1290.87ZM139.598 1283.26L141.193 1281.34C139.673 1280.08 138.169 1278.82 136.682 1277.57L135.07 1279.48L133.458 1281.39C134.957 1282.65 136.472 1283.92 138.004 1285.19L139.598 1283.26ZM130.537 1275.62L132.168 1273.72C130.639 1272.41 129.128 1271.09 127.635 1269.78L125.985 1271.66L124.334 1273.54C125.841 1274.86 127.365 1276.18 128.906 1277.51L130.537 1275.62ZM121.538 1267.71L123.209 1265.85C121.751 1264.54 120.311 1263.23 118.888 1261.92L117.197 1263.77L115.506 1265.61C116.943 1266.93 118.397 1268.25 119.868 1269.57L121.538 1267.71ZM112.756 1259.64L114.469 1257.82C113.015 1256.45 111.579 1255.08 110.162 1253.71L108.427 1255.51L106.691 1257.31C108.123 1258.69 109.573 1260.08 111.043 1261.46L112.756 1259.64ZM104.209 1251.39L105.968 1249.62C104.545 1248.21 103.141 1246.8 101.756 1245.39L99.9734 1247.14L98.1905 1248.89C99.5912 1250.32 101.011 1251.74 102.45 1253.17L104.209 1251.39ZM95.8005 1242.84L97.6083 1241.11C96.2453 1239.68 94.9019 1238.25 93.5778 1236.83L91.7447 1238.53L89.9117 1240.23C91.2527 1241.67 92.6129 1243.12 93.9926 1244.56L95.8005 1242.84ZM87.7183 1234.12L89.5776 1232.45C88.2408 1230.96 86.9247 1229.47 85.6289 1227.98L83.7428 1229.62L81.8567 1231.26C83.1705 1232.77 84.5046 1234.28 85.8591 1235.79L87.7183 1234.12ZM79.8889 1225.12L81.802 1223.51C80.5239 1221.99 79.2664 1220.47 78.0293 1218.94L76.0886 1220.52L74.1478 1222.1C75.4033 1223.64 76.6792 1225.19 77.9758 1226.73L79.8889 1225.12ZM72.3517 1215.83L74.3206 1214.29C73.1051 1212.74 71.9104 1211.18 70.7361 1209.62L68.7392 1211.13L66.7422 1212.63C67.9352 1214.22 69.1486 1215.8 70.3828 1217.37L72.3517 1215.83ZM65.1922 1206.32L67.2176 1204.86C66.0527 1203.25 64.9089 1201.64 63.7859 1200.02L61.7322 1201.44L59.6784 1202.87C60.8202 1204.51 61.9829 1206.15 63.1669 1207.79L65.1922 1206.32ZM58.3972 1196.53L60.479 1195.15C59.3807 1193.5 58.3035 1191.84 57.2469 1190.18L55.1372 1191.52L53.0275 1192.86C54.1025 1194.55 55.1984 1196.24 56.3154 1197.92L58.3972 1196.53ZM51.9858 1186.45L54.1231 1185.15C53.1024 1183.47 52.1021 1181.78 51.122 1180.09L48.958 1181.34L46.7941 1182.59C47.7918 1184.32 48.8099 1186.03 49.8486 1187.75L51.9858 1186.45ZM46.0177 1176.13L48.2078 1174.92C47.2562 1173.2 46.3247 1171.46 45.413 1169.72L43.1975 1170.87L40.982 1172.03C41.9103 1173.81 42.8586 1175.58 43.8275 1177.34L46.0177 1176.13ZM40.4947 1165.57L42.7345 1164.46C41.8583 1162.69 41.0015 1160.91 40.1639 1159.13L37.9009 1160.19L35.6379 1161.25C36.4906 1163.07 37.3629 1164.88 38.255 1166.68L40.4947 1165.57ZM35.4229 1154.76L37.708 1153.75C36.9096 1151.95 36.1298 1150.14 35.3683 1148.33L33.0624 1149.29L30.7565 1150.26C31.5315 1152.11 32.3251 1153.95 33.1378 1155.78L35.4229 1154.76ZM30.8174 1143.77L33.1429 1142.85C32.419 1141.02 31.7128 1139.17 31.024 1137.32L28.6803 1138.19L26.3366 1139.06C27.0371 1140.95 27.7555 1142.82 28.492 1144.69L30.8174 1143.77ZM26.6647 1132.59L29.0253 1131.76C28.3783 1129.91 27.7478 1128.04 27.1335 1126.16L24.7574 1126.94L22.3812 1127.72C23.0054 1129.63 23.6463 1131.52 24.3041 1133.41L26.6647 1132.59ZM22.9484 1121.23L25.3389 1120.49C24.7666 1118.62 24.2096 1116.74 23.6675 1114.85L21.2641 1115.54L18.8607 1116.23C19.411 1118.15 19.9766 1120.06 20.5579 1121.96L22.9484 1121.23ZM19.6733 1109.79L22.0886 1109.14C21.5777 1107.23 21.0813 1105.31 20.5991 1103.37L18.1731 1103.97L15.7471 1104.58C16.2362 1106.54 16.7397 1108.49 17.2581 1110.43L19.6733 1109.79ZM16.7911 1098.22L19.2266 1097.66C18.7823 1095.74 18.3512 1093.81 17.933 1091.87L15.489 1092.39L13.0449 1092.92C13.4686 1094.89 13.9054 1096.84 14.3556 1098.79L16.7911 1098.22ZM14.27 1086.51L16.7217 1086.02C16.3406 1084.11 15.9713 1082.19 15.6135 1080.25L13.1551 1080.71L10.6967 1081.16C11.0588 1083.12 11.4325 1085.07 11.8183 1087L14.27 1086.51ZM12.1098 1074.82L14.5741 1074.4C14.2406 1072.45 13.9181 1070.48 13.6064 1068.5L11.1368 1068.89L8.66713 1069.27C8.98214 1071.28 9.30814 1073.27 9.64542 1075.24L12.1098 1074.82ZM10.2554 1063.05L12.7295 1062.69C12.4472 1060.74 12.1748 1058.78 11.9119 1056.81L9.43376 1057.13L6.95559 1057.46C7.22093 1059.46 7.49605 1061.44 7.78121 1063.41L10.2554 1063.05ZM8.67096 1051.14L11.1526 1050.84C10.9181 1048.91 10.6922 1046.97 10.4747 1045.02L7.99001 1045.3L5.50537 1045.57C5.72472 1047.54 5.95261 1049.5 6.18927 1051.45L8.67096 1051.14ZM7.35986 1039.37L9.84709 1039.12C9.64615 1037.14 9.45337 1035.14 9.26852 1033.13L6.77904 1033.36L4.28956 1033.59C4.4758 1035.62 4.67007 1037.63 4.87262 1039.62L7.35986 1039.37ZM6.26258 1027.47L8.75394 1027.26C8.5912 1025.31 8.43554 1023.34 8.28675 1021.37L5.79378 1021.55L3.30082 1021.74C3.4506 1023.73 3.60733 1025.71 3.77122 1027.68L6.26258 1027.47ZM5.36644 1015.56L7.86078 1015.39C7.72789 1013.42 7.60144 1011.43 7.48121 1009.43L4.98573 1009.58L2.49024 1009.73C2.61117 1011.74 2.73839 1013.74 2.8721 1015.72L5.36644 1015.56ZM4.65108 1003.69L7.14752 1003.56C7.04207 1001.59 6.94235 999.603 6.84817 997.605L4.35094 997.722L1.85372 997.84C1.94838 999.848 2.04863 1001.84 2.15465 1003.83L4.65108 1003.69ZM4.08419 991.674L6.58208 991.571C6.50206 989.626 6.42698 987.668 6.35669 985.697L3.85828 985.786L1.35987 985.875C1.43048 987.855 1.5059 989.822 1.5863 991.777L4.08419 991.674ZM3.66224 979.858L6.16107 979.782C6.10049 977.797 6.04447 975.8 5.99285 973.79L3.49367 973.854L0.994497 973.918C1.04631 975.936 1.10256 977.942 1.1634 979.934L3.66224 979.858ZM3.35266 967.823L5.8521 967.77C5.81104 965.827 5.77384 963.873 5.74037 961.906L3.24073 961.948L0.74109 961.991C0.774678 963.964 0.812008 965.926 0.853221 967.876L3.35266 967.823ZM3.15119 956.001L5.65097 955.968C5.62481 953.977 5.60222 951.973 5.58309 949.957L3.0832 949.98L0.58331 950.004C0.602505 952.026 0.625156 954.036 0.651405 956.034L3.15119 956.001ZM3.03643 943.972L5.53639 943.956C5.52448 942.01 5.51558 940.052 5.50956 938.083L3.00958 938.091L0.509587 938.098C0.515619 940.073 0.524542 942.036 0.536479 943.987L3.03643 943.972ZM3.00004 932.14L5.50004 932.14C5.49966 930.147 5.50205 928.142 5.50708 926.125L3.00708 926.119L0.507091 926.113C0.502055 928.134 0.499663 930.143 0.500038 932.141L3.00004 932.14ZM3.02963 920.095L5.5296 920.107C5.53925 918.162 5.55118 916.206 5.5653 914.239L3.06536 914.221L0.565429 914.203C0.551288 916.174 0.53933 918.134 0.529664 920.082L3.02963 920.095ZM3.11419 908.281L5.61408 908.304C5.63246 906.315 5.6529 904.314 5.67532 902.301L3.17547 902.274L0.675629 902.246C0.653179 904.261 0.632699 906.265 0.614297 908.258L3.11419 908.281ZM3.24858 896.198L5.74837 896.23C5.77341 894.288 5.80015 892.336 5.82849 890.373L3.32875 890.337L0.829009 890.301C0.800633 892.266 0.773861 894.221 0.748785 896.165L3.24858 896.198ZM3.41843 884.42L5.91811 884.459C5.94953 882.477 5.98245 880.485 6.01679 878.481L3.51716 878.438L1.01753 878.396C0.983151 880.401 0.950193 882.396 0.918743 884.38L3.41843 884.42ZM3.62439 872.392L6.12397 872.438C6.1425 871.425 6.16137 870.41 6.18056 869.392L3.68101 869.345L1.18145 869.298C1.16224 870.317 1.14336 871.333 1.12481 872.346L3.62439 872.392ZM3.68101 869.345L6.18056 869.392C6.20023 868.348 6.22962 867.312 6.26865 866.284L3.77045 866.189L1.27224 866.094C1.232 867.155 1.20172 868.223 1.18145 869.298L3.68101 869.345ZM4.1253 860.01L6.61785 860.203C6.7724 858.205 6.96489 856.238 7.19471 854.3L4.71211 854.006L2.2295 853.711C1.99153 855.718 1.79246 857.753 1.63276 859.817L4.1253 860.01ZM5.52762 848.175L7.99558 848.574C8.30521 846.658 8.65297 844.773 9.03824 842.917L6.59042 842.409L4.1426 841.901C3.74207 843.83 3.38092 845.788 3.05966 847.776L5.52762 848.175ZM7.99054 836.403L10.4104 837.03C10.9107 835.102 11.4536 833.207 12.0383 831.344L9.65312 830.595L7.26789 829.846C6.65771 831.79 6.09174 833.766 5.57063 835.775L7.99054 836.403ZM11.5739 824.983L13.9175 825.853C14.5951 824.028 15.3152 822.236 16.0769 820.476L13.7825 819.483L11.4882 818.49C10.6913 820.332 9.93843 822.205 9.2303 824.112L11.5739 824.983ZM16.3499 813.975L18.5857 815.093C19.4664 813.333 20.3915 811.606 21.3601 809.913L19.1899 808.671L17.0197 807.43C16.0052 809.204 15.0364 811.013 14.1142 812.856L16.3499 813.975ZM22.2975 803.57L24.3957 804.93C25.4564 803.292 26.5604 801.687 27.7071 800.114L25.6867 798.641L23.6664 797.169C22.4661 798.816 21.3101 800.496 20.1992 802.211L22.2975 803.57ZM29.3534 793.888L31.2909 795.468C32.5281 793.951 33.8077 792.465 35.1289 791.009L33.2778 789.329L31.4268 787.649C30.047 789.169 28.7097 790.722 27.416 792.308L29.3534 793.888ZM37.4547 784.961L39.2169 786.734C40.5884 785.371 41.999 784.037 43.4481 782.73L41.774 780.873L40.0999 779.017C38.5918 780.376 37.1224 781.766 35.6925 783.187L37.4547 784.961ZM46.3064 776.975L47.8924 778.908C49.4116 777.661 50.9684 776.441 52.562 775.248L51.0635 773.247L49.5651 771.245C47.9134 772.482 46.2982 773.748 44.7203 775.043L46.3064 776.975ZM56.023 769.696L57.4354 771.759C59.0174 770.676 60.6321 769.616 62.2789 768.579L60.9468 766.463L59.6147 764.348C57.9151 765.418 56.2468 766.513 54.6106 767.633L56.023 769.696ZM66.0606 763.374L67.3145 765.537C69.0246 764.545 70.7661 763.576 72.5385 762.629L71.3604 760.424L70.1823 758.219C68.3603 759.193 66.5682 760.19 64.8067 761.211L66.0606 763.374ZM76.8154 757.625L77.9207 759.867C79.64 759.02 81.3859 758.191 83.1577 757.382L82.1185 755.108L81.0793 752.834C79.2643 753.664 77.4744 754.513 75.7102 755.383L76.8154 757.625ZM87.5748 752.706L88.5505 755.008C90.3737 754.235 92.2223 753.48 94.0958 752.744L93.1809 750.417L92.2661 748.091C90.3529 748.843 88.4637 749.614 86.5991 750.404L87.5748 752.706ZM98.9336 748.238L99.7902 750.587C101.611 749.923 103.453 749.275 105.317 748.642L104.513 746.275L103.709 743.907C101.811 744.552 99.9335 745.213 98.077 745.89L98.9336 748.238ZM110.148 744.427L110.902 746.811C112.785 746.215 114.687 745.635 116.61 745.068L115.903 742.67L115.197 740.272C113.243 740.847 111.309 741.438 109.394 742.044L110.148 744.427ZM121.775 741.001L122.436 743.412C124.365 742.883 126.312 742.368 128.278 741.866L127.659 739.443L127.04 737.021C125.047 737.53 123.071 738.053 121.114 738.59L121.775 741.001ZM133.374 738.033L133.954 740.465C135.863 740.01 137.788 739.566 139.728 739.135L139.186 736.694L138.643 734.254C136.678 734.691 134.728 735.14 132.795 735.601L133.374 738.033ZM145.091 735.426L145.598 737.874C147.57 737.465 149.558 737.068 151.561 736.681L151.087 734.227L150.613 731.772C148.589 732.163 146.578 732.565 144.583 732.978L145.091 735.426ZM157.026 733.12L157.468 735.581C159.385 735.236 161.315 734.901 163.258 734.576L162.845 732.11L162.432 729.644C160.47 729.973 158.52 730.312 156.584 730.66L157.026 733.12ZM168.74 731.156L169.126 733.626C171.094 733.319 173.075 733.021 175.068 732.732L174.709 730.258L174.35 727.784C172.339 728.075 170.341 728.376 168.355 728.686L168.74 731.156ZM180.749 729.413L181.083 731.891C183.071 731.623 185.071 731.363 187.082 731.112L186.772 728.631L186.462 726.151C184.436 726.404 182.42 726.665 180.415 726.935L180.749 729.413ZM192.64 727.925L192.928 730.408C194.887 730.181 196.855 729.961 198.834 729.748L198.567 727.263L198.3 724.777C196.308 724.991 194.325 725.212 192.352 725.441L192.64 727.925ZM204.553 726.644L204.8 729.132C206.798 728.934 208.805 728.742 210.822 728.558L210.595 726.068L210.367 723.578C208.337 723.764 206.317 723.957 204.306 724.156L204.553 726.644ZM216.691 725.533L216.901 728.024C218.86 727.859 220.828 727.7 222.804 727.547L222.611 725.055L222.418 722.562C220.431 722.716 218.453 722.876 216.482 723.041L216.691 725.533ZM228.545 724.615L228.722 727.109C230.703 726.968 232.691 726.833 234.687 726.704L234.526 724.209L234.364 721.715C232.358 721.845 230.36 721.98 228.368 722.121L228.545 724.615ZM240.55 723.837L240.697 726.333C242.708 726.214 244.726 726.101 246.751 725.993L246.618 723.497L246.485 721C244.451 721.109 242.424 721.222 240.403 721.341L240.55 723.837ZM252.679 723.189L252.799 725.687C254.766 725.592 256.739 725.502 258.718 725.417L258.61 722.919L258.503 720.421C256.515 720.507 254.534 720.597 252.559 720.692L252.679 723.189ZM264.578 722.675L264.674 725.174C266.665 725.097 268.663 725.025 270.665 724.956L270.58 722.458L270.495 719.959C268.485 720.028 266.481 720.1 264.482 720.177L264.578 722.675ZM276.616 722.265L276.691 724.764C278.705 724.704 280.725 724.647 282.749 724.595L282.685 722.096L282.62 719.597C280.589 719.649 278.563 719.706 276.542 719.766L276.616 722.265ZM288.721 721.951L288.776 724.451C290.754 724.407 292.737 724.367 294.724 724.33L294.677 721.83L294.631 719.331C292.638 719.368 290.65 719.408 288.666 719.452L288.721 721.951ZM300.66 721.729L300.699 724.229C302.695 724.198 304.695 724.171 306.7 724.147L306.669 721.647L306.639 719.147C304.629 719.171 302.624 719.199 300.622 719.229L300.66 721.729ZM312.703 721.583L312.726 724.082C314.739 724.064 316.755 724.048 318.776 724.036L318.76 721.536L318.744 719.036C316.719 719.049 314.697 719.064 312.68 719.083L312.703 721.583ZM324.796 721.505L324.805 724.005C326.79 723.997 328.779 723.992 330.771 723.99L330.767 721.49L330.764 718.99C328.768 718.992 326.775 718.997 324.786 719.005L324.796 721.505ZM336.758 721.488L336.756 723.988C338.754 723.99 340.756 723.994 342.76 724L342.767 721.5L342.775 719C340.767 718.994 338.762 718.99 336.761 718.988L336.758 721.488ZM348.793 721.524L348.781 724.024C350.791 724.034 352.803 724.045 354.818 724.059L354.835 721.559L354.852 719.059C352.834 719.046 350.818 719.034 348.806 719.024L348.793 721.524ZM360.876 721.605L360.855 724.105C362.846 724.121 364.84 724.14 366.836 724.159L366.86 721.659L366.885 719.159C364.887 719.14 362.891 719.121 360.897 719.105L360.876 721.605ZM372.857 721.723L372.829 724.222C374.829 724.245 376.831 724.269 378.835 724.294L378.866 721.794L378.897 719.294C376.891 719.269 374.888 719.245 372.886 719.223L372.857 721.723ZM384.884 721.872L384.85 724.372C386.857 724.399 388.865 724.427 390.875 724.456L390.911 721.956L390.947 719.456C388.936 719.427 386.926 719.399 384.918 719.372L384.884 721.872ZM396.946 722.046L396.908 724.546C398.907 724.576 400.907 724.607 402.908 724.639L402.948 722.14L402.987 719.64C400.985 719.608 398.984 719.577 396.984 719.546L396.946 722.046ZM408.952 722.237L408.911 724.737C410.913 724.77 412.916 724.803 414.92 724.837L414.962 722.337L415.004 719.838C413 719.804 410.997 719.77 408.994 719.737L408.952 722.237ZM420.975 722.44L420.932 724.94C422.937 724.974 424.942 725.009 426.948 725.044L426.991 722.544L427.034 720.044C425.029 720.01 423.023 719.975 421.018 719.94L420.975 722.44ZM433.008 722.648L432.965 725.148C434.971 725.183 436.977 725.218 438.983 725.252L439.026 722.753L439.069 720.253C437.063 720.218 435.058 720.184 433.052 720.149L433.008 722.648ZM445.042 722.856L444.999 725.356C447.005 725.39 449.01 725.424 451.015 725.457L451.057 722.958L451.099 720.458C449.094 720.425 447.09 720.391 445.085 720.356L445.042 722.856ZM457.069 723.057L457.029 725.556C459.033 725.589 461.036 725.621 463.039 725.652L463.078 723.152L463.117 720.653C461.115 720.621 459.113 720.59 457.11 720.557L457.069 723.057ZM469.082 723.244L469.045 725.744C471.051 725.774 473.056 725.803 475.06 725.831L475.095 723.331L475.13 720.831C473.127 720.803 471.124 720.774 469.119 720.744L469.082 723.244ZM481.127 723.412L481.094 725.912C483.105 725.938 485.114 725.963 487.121 725.987L487.151 723.487L487.181 720.987C485.175 720.964 483.168 720.939 481.159 720.912L481.127 723.412ZM493.166 723.555L493.14 726.054C495.144 726.076 497.147 726.095 499.149 726.114L499.172 723.614L499.194 721.114C497.196 721.096 495.195 721.076 493.193 721.055L493.166 723.555ZM505.166 723.664L505.147 726.164C507.148 726.179 509.146 726.193 511.143 726.205L511.158 723.705L511.172 721.205C509.179 721.193 507.183 721.179 505.185 721.164L505.166 723.664ZM517.209 723.735L517.199 726.235C519.215 726.243 521.229 726.249 523.24 726.253L523.245 723.753L523.25 721.253C521.242 721.249 519.232 721.243 517.219 721.235L517.209 723.735ZM529.266 723.759L529.266 726.259C531.272 726.259 533.276 726.256 535.276 726.251L535.27 723.751L535.264 721.251C533.267 721.256 531.268 721.259 529.266 721.259L529.266 723.759ZM541.256 723.73L541.268 726.23C543.263 726.22 545.254 726.207 547.242 726.193L547.223 723.693L547.204 721.193C545.221 721.208 543.234 721.22 541.244 721.23L541.256 723.73ZM553.289 723.639L553.315 726.138C555.337 726.118 557.356 726.094 559.371 726.067L559.338 723.567L559.304 721.067C557.294 721.094 555.28 721.118 553.263 721.139L553.289 723.639ZM565.364 723.477L565.405 725.977C567.412 725.943 569.416 725.907 571.415 725.867L571.365 723.368L571.315 720.868C569.322 720.908 567.324 720.944 565.322 720.977L565.364 723.477ZM577.341 723.238L577.4 725.738C579.39 725.691 581.376 725.641 583.358 725.587L583.29 723.088L583.222 720.589C581.247 720.642 579.267 720.692 577.282 720.739L577.341 723.238ZM589.365 722.911L589.443 725.409C591.471 725.346 593.493 725.279 595.511 725.207L595.422 722.709L595.334 720.21C593.323 720.282 591.308 720.349 589.287 720.412L589.365 722.911ZM601.448 722.482L601.547 724.98C603.554 724.9 605.555 724.815 607.551 724.726L607.44 722.229L607.328 719.731C605.341 719.82 603.347 719.904 601.348 719.984L601.448 722.482ZM613.397 721.949L613.521 724.446C615.508 724.347 617.49 724.244 619.465 724.136L619.329 721.64L619.192 719.144C617.226 719.251 615.253 719.354 613.274 719.452L613.397 721.949ZM625.423 721.29L625.574 723.786C627.603 723.664 629.626 723.536 631.641 723.403L631.477 720.908L631.312 718.414C629.306 718.546 627.293 718.673 625.273 718.795L625.423 721.29ZM637.487 720.493L637.667 722.986C639.669 722.842 641.663 722.692 643.65 722.535L643.454 720.043L643.258 717.551C641.282 717.706 639.298 717.856 637.307 717.999L637.487 720.493ZM649.375 719.558L649.587 722.049C651.591 721.878 653.588 721.7 655.576 721.517L655.345 719.027L655.115 716.538C653.139 716.721 651.155 716.897 649.162 717.067L649.375 719.558ZM661.423 718.442L661.672 720.929C663.695 720.727 665.71 720.517 667.715 720.3L667.446 717.815L667.177 715.329C665.185 715.545 663.184 715.753 661.174 715.954L661.423 718.442ZM673.413 717.144L673.703 719.627C675.689 719.395 677.666 719.156 679.634 718.909L679.322 716.428L679.011 713.948C677.058 714.193 675.096 714.43 673.123 714.661L673.413 717.144ZM685.173 715.667L685.507 718.144C687.549 717.869 689.581 717.585 691.601 717.292L691.242 714.818L690.883 712.344C688.88 712.634 686.865 712.916 684.839 713.189L685.173 715.667ZM697.258 713.913L697.642 716.384C699.645 716.072 701.635 715.751 703.614 715.42L703.202 712.954L702.79 710.488C700.83 710.816 698.857 711.134 696.873 711.443L697.258 713.913ZM709.074 711.939L709.514 714.399C711.469 714.05 713.411 713.69 715.341 713.321L714.871 710.865L714.401 708.41C712.491 708.775 710.569 709.131 708.633 709.478L709.074 711.939ZM720.851 709.68L721.353 712.129C723.368 711.715 725.367 711.291 727.352 710.854L726.815 708.412L726.278 705.971C724.317 706.402 722.34 706.822 720.348 707.231L720.851 709.68ZM732.69 707.076L733.263 709.509C735.218 709.049 737.158 708.576 739.082 708.092L738.472 705.667L737.861 703.243C735.962 703.721 734.047 704.188 732.117 704.642L732.69 707.076ZM744.159 704.186L744.809 706.6C746.811 706.061 748.796 705.508 750.762 704.941L750.069 702.539L749.376 700.137C747.439 700.696 745.483 701.241 743.51 701.772L744.159 704.186ZM755.901 700.796L756.64 703.184C758.581 702.583 760.503 701.968 762.406 701.337L761.619 698.964L760.832 696.591C758.962 697.211 757.072 697.816 755.162 698.407L755.901 700.796ZM767.22 697.041L768.056 699.397C769.959 698.721 771.841 698.029 773.702 697.32L772.812 694.984L771.922 692.648C770.097 693.343 768.251 694.022 766.383 694.686L767.22 697.041ZM778.516 692.73L779.464 695.043C781.362 694.265 783.236 693.469 785.086 692.653L784.078 690.366L783.069 688.078C781.26 688.876 779.426 689.655 777.568 690.416L778.516 692.73ZM789.493 687.889L790.564 690.148C792.367 689.293 794.146 688.418 795.899 687.523L794.762 685.297L793.625 683.07C791.916 683.942 790.182 684.796 788.422 685.63L789.493 687.889ZM800.189 682.415L801.398 684.604C803.202 683.607 804.978 682.588 806.724 681.544L805.441 679.398L804.158 677.252C802.463 678.266 800.737 679.257 798.981 680.227L800.189 682.415ZM810.513 676.243L811.872 678.342C813.558 677.25 815.213 676.134 816.838 674.993L815.401 672.947L813.964 670.901C812.392 672.005 810.789 673.086 809.154 674.145L810.513 676.243ZM820.318 669.341L821.838 671.326C823.474 670.073 825.074 668.793 826.639 667.483L825.035 665.566L823.431 663.649C821.922 664.911 820.378 666.147 818.798 667.356L820.318 669.341ZM829.536 661.625L831.225 663.469C832.721 662.098 834.18 660.699 835.601 659.269L833.827 657.507L832.054 655.744C830.689 657.118 829.287 658.464 827.847 659.782L829.536 661.625ZM837.978 653.12L839.836 654.793C841.208 653.27 842.54 651.714 843.83 650.126L841.89 648.55L839.949 646.973C838.713 648.495 837.437 649.986 836.12 651.448L837.978 653.12ZM845.556 643.791L847.576 645.265C848.777 643.619 849.937 641.939 851.054 640.227L848.961 638.861L846.867 637.495C845.798 639.134 844.688 640.741 843.537 642.317L845.556 643.791ZM852.087 633.781L854.25 635.035C855.273 633.272 856.252 631.475 857.188 629.645L854.962 628.507L852.736 627.369C851.84 629.121 850.903 630.84 849.925 632.527L852.087 633.781ZM857.579 623.036L859.862 624.055C860.285 623.106 860.698 622.149 861.099 621.183L858.79 620.225L856.481 619.266C856.097 620.191 855.702 621.108 855.296 622.017L857.579 623.036ZM858.79 620.225L861.099 621.183C861.52 620.168 861.916 619.156 862.288 618.147L859.941 617.284L857.595 616.421C857.248 617.365 856.877 618.313 856.481 619.266L858.79 620.225ZM861.804 611.472L864.216 612.13C864.759 610.136 865.204 608.154 865.552 606.184L863.09 605.749L860.628 605.315C860.307 607.131 859.896 608.964 859.392 610.815L861.804 611.472ZM863.835 599.847L866.328 600.036C866.488 597.929 866.535 595.837 866.474 593.761L863.976 593.834L861.477 593.907C861.532 595.809 861.489 597.725 861.343 599.659L863.835 599.847ZM863.492 587.913L865.969 587.58C865.695 585.536 865.315 583.509 864.833 581.499L862.402 582.081L859.971 582.663C860.414 584.512 860.762 586.373 861.014 588.246L863.492 587.913ZM860.725 576.333L863.089 575.519C862.415 573.561 861.645 571.62 860.784 569.694L858.502 570.715L856.22 571.737C857.023 573.531 857.738 575.334 858.361 577.147L860.725 576.333ZM855.901 565.47L858.096 564.274C857.121 562.482 856.066 560.703 854.935 558.938L852.83 560.286L850.725 561.634C851.794 563.304 852.788 564.981 853.705 566.665L855.901 565.47ZM849.392 555.28L851.408 553.802C850.25 552.221 849.03 550.65 847.753 549.089L845.818 550.672L843.883 552.255C845.107 553.751 846.272 555.252 847.376 556.758L849.392 555.28ZM841.892 546.107L843.749 544.432C842.367 542.9 840.93 541.376 839.44 539.861L837.657 541.613L835.875 543.366C837.317 544.833 838.705 546.305 840.036 547.781L841.892 546.107ZM833.525 537.56L835.244 535.745C833.802 534.38 832.317 533.02 830.791 531.666L829.132 533.536L827.473 535.406C828.96 536.726 830.405 538.049 831.806 539.376L833.525 537.56ZM824.487 529.539L826.091 527.621C824.563 526.345 823 525.073 821.402 523.805L819.848 525.764L818.295 527.723C819.861 528.965 821.391 530.21 822.884 531.457L824.487 529.539ZM815.212 522.173L816.721 520.18C815.129 518.975 813.506 517.773 811.854 516.575L810.386 518.599L808.919 520.623C810.545 521.802 812.14 522.983 813.703 524.166L815.212 522.173ZM805.378 515.041L806.807 512.99C805.188 511.862 803.542 510.737 801.872 509.614L800.477 511.688L799.083 513.763C800.731 514.871 802.354 515.981 803.949 517.093L805.378 515.041ZM795.569 508.442L796.933 506.347C795.263 505.26 793.571 504.175 791.856 503.092L790.521 505.205L789.186 507.319C790.882 508.39 792.555 509.463 794.205 510.537L795.569 508.442ZM785.339 501.978L786.648 499.847C784.944 498.801 783.22 497.756 781.477 496.712L780.193 498.857L778.909 501.002C780.636 502.036 782.344 503.072 784.03 504.108L785.339 501.978ZM775.138 495.864L776.401 493.707C774.691 492.706 772.964 491.706 771.221 490.707L769.978 492.877L768.735 495.046C770.465 496.037 772.179 497.029 773.875 498.022L775.138 495.864ZM764.717 489.893L765.941 487.713C764.166 486.716 762.374 485.719 760.567 484.723L759.36 486.912L758.153 489.101C759.949 490.091 761.729 491.082 763.493 492.072L764.717 489.893ZM754.198 484.089L755.39 481.892C753.659 480.953 751.916 480.015 750.159 479.077L748.981 481.282L747.803 483.487C749.551 484.42 751.285 485.354 753.006 486.287L754.198 484.089ZM743.689 478.475L744.854 476.263C743.074 475.325 741.281 474.387 739.477 473.449L738.324 475.667L737.171 477.885C738.967 478.819 740.752 479.753 742.524 480.686L743.689 478.475ZM732.918 472.873L734.061 470.649C732.318 469.754 730.566 468.858 728.805 467.963L727.672 470.191L726.539 472.42C728.294 473.312 730.04 474.204 731.775 475.096L732.918 472.873ZM722.368 467.507L723.493 465.274C721.713 464.378 719.924 463.481 718.127 462.583L717.01 464.82L715.893 467.057C717.685 467.952 719.469 468.846 721.243 469.74L722.368 467.507ZM711.6 462.129L712.709 459.889C710.901 458.993 709.084 458.096 707.259 457.198L706.155 459.441L705.052 461.684C706.872 462.58 708.685 463.475 710.49 464.369L711.6 462.129ZM700.847 456.837L701.945 454.591C700.167 453.721 698.383 452.851 696.592 451.979L695.498 454.227L694.404 456.475C696.192 457.345 697.973 458.214 699.748 459.082L700.847 456.837ZM690.111 451.611L691.201 449.362C689.398 448.488 687.589 447.613 685.775 446.738L684.688 448.989L683.602 451.241C685.414 452.115 687.22 452.989 689.021 453.861L690.111 451.611ZM679.233 446.36L680.317 444.107C678.533 443.248 676.745 442.388 674.951 441.527L673.869 443.781L672.787 446.034C674.579 446.895 676.366 447.754 678.149 448.612L679.233 446.36ZM668.499 441.204L669.58 438.95C667.786 438.089 665.987 437.227 664.185 436.364L663.105 438.618L662.025 440.873C663.826 441.736 665.624 442.598 667.418 443.458L668.499 441.204ZM657.689 436.024L658.769 433.769C656.961 432.903 655.149 432.035 653.334 431.165L652.254 433.42L651.173 435.674C652.988 436.544 654.8 437.412 656.609 438.278L657.689 436.024ZM646.846 430.827L647.928 428.573C646.138 427.714 644.347 426.854 642.553 425.992L641.47 428.245L640.387 430.499C642.182 431.361 643.975 432.222 645.765 433.081L646.846 430.827ZM636.082 425.653L637.167 423.401C635.37 422.535 633.571 421.668 631.771 420.798L630.684 423.05L629.597 425.301C631.398 426.171 633.198 427.039 634.997 427.906L636.082 425.653ZM625.278 420.434L626.369 418.184C624.568 417.311 622.766 416.436 620.964 415.559L619.869 417.807L618.775 420.055C620.58 420.933 622.385 421.809 624.188 422.684L625.278 420.434ZM614.497 415.186L615.596 412.94C613.806 412.065 612.016 411.188 610.227 410.309L609.124 412.552L608.022 414.796C609.814 415.677 611.607 416.556 613.399 417.432L614.497 415.186ZM603.753 409.905L604.861 407.663C603.072 406.779 601.285 405.893 599.498 405.004L598.385 407.242L597.271 409.481C599.062 410.372 600.853 411.26 602.645 412.146L603.753 409.905ZM593.022 404.566L594.142 402.33C592.357 401.436 590.573 400.54 588.792 399.64L587.665 401.872L586.539 404.104C588.325 405.006 590.113 405.904 591.902 406.801L593.022 404.566ZM582.316 399.162L583.45 396.934C581.672 396.029 579.895 395.121 578.121 394.211L576.98 396.435L575.838 398.659C577.618 399.572 579.399 400.483 581.183 401.39L582.316 399.162ZM571.658 393.691L572.807 391.471C571.039 390.555 569.273 389.637 567.511 388.715L566.352 390.93L565.194 393.145C566.962 394.07 568.734 394.992 570.508 395.911L571.658 393.691ZM561.062 388.149L562.23 385.939C560.459 385.003 558.691 384.064 556.927 383.121L555.749 385.326L554.571 387.531C556.342 388.478 558.116 389.42 559.894 390.36L561.062 388.149ZM550.459 382.484L551.648 380.285C549.893 379.336 548.142 378.384 546.395 377.429L545.196 379.622L543.996 381.815C545.75 382.775 547.508 383.731 549.271 384.683L550.459 382.484ZM539.96 376.739L541.171 374.552C539.435 373.59 537.704 372.625 535.978 371.656L534.754 373.836L533.53 376.015C535.264 376.989 537.004 377.959 538.748 378.926L539.96 376.739ZM529.527 370.88L530.764 368.707C529.021 367.714 527.284 366.718 525.553 365.717L524.302 367.882L523.051 370.046C524.791 371.052 526.538 372.054 528.29 373.052L529.527 370.88ZM519.116 364.861L520.382 362.705C518.664 361.697 516.954 360.685 515.251 359.669L513.97 361.816L512.69 363.963C514.403 364.985 516.123 366.003 517.85 367.017L519.116 364.861ZM508.868 358.747L510.164 356.609C508.465 355.579 506.774 354.544 505.09 353.505L503.777 355.632L502.464 357.759C504.159 358.805 505.861 359.847 507.571 360.884L508.868 358.747ZM498.646 352.435L499.977 350.319C498.281 349.252 496.594 348.181 494.917 347.106L493.567 349.211L492.218 351.315C493.908 352.399 495.607 353.477 497.315 354.551L498.646 352.435ZM488.544 345.958L489.912 343.866C488.254 342.781 486.605 341.692 484.967 340.598L483.579 342.677L482.19 344.756C483.842 345.859 485.504 346.957 487.176 348.051L488.544 345.958ZM478.666 339.362L480.075 337.297C478.406 336.158 476.749 335.015 475.103 333.866L473.672 335.916L472.241 337.966C473.902 339.125 475.574 340.279 477.257 341.427L478.666 339.362ZM468.749 332.438L470.203 330.404C468.581 329.245 466.972 328.08 465.375 326.91L463.897 328.927L462.42 330.943C464.032 332.125 465.658 333.301 467.295 334.472L468.749 332.438ZM459.121 325.382L460.624 323.384C459.053 322.203 457.495 321.016 455.951 319.824L454.423 321.803L452.896 323.781C454.457 324.987 456.031 326.186 457.619 327.38L459.121 325.382ZM449.638 318.055L451.193 316.097C449.622 314.849 448.065 313.594 446.524 312.332L444.941 314.267L443.357 316.201C444.917 317.478 446.493 318.749 448.083 320.012L449.638 318.055ZM440.337 310.44L441.949 308.53C440.441 307.256 438.948 305.975 437.472 304.689L435.829 306.573L434.186 308.457C435.682 309.762 437.195 311.06 438.724 312.35L440.337 310.44ZM431.401 302.648L433.075 300.791C431.574 299.438 430.092 298.078 428.629 296.71L426.922 298.537L425.215 300.363C426.7 301.752 428.204 303.132 429.727 304.505L431.401 302.648ZM422.557 294.38L424.298 292.586C422.874 291.204 421.47 289.814 420.086 288.417L418.31 290.176L416.534 291.935C417.941 293.356 419.369 294.769 420.816 296.174L422.557 294.38ZM414.185 285.925L415.997 284.203C414.631 282.766 413.288 281.322 411.966 279.869L410.117 281.552L408.268 283.234C409.614 284.714 410.983 286.185 412.373 287.648L414.185 285.925ZM406.091 277.023L407.979 275.384C406.674 273.881 405.393 272.369 404.136 270.848L402.209 272.44L400.282 274.033C401.565 275.586 402.872 277.129 404.203 278.662L406.091 277.023ZM398.474 267.803L400.441 266.26C399.234 264.722 398.052 263.175 396.897 261.619L394.89 263.109L392.883 264.6C394.065 266.192 395.273 267.774 396.507 269.346L398.474 267.803ZM391.351 258.201L393.399 256.768C392.258 255.137 391.145 253.496 390.062 251.845L387.972 253.216L385.882 254.588C386.993 256.281 388.133 257.963 389.302 259.634L391.351 258.201ZM384.768 248.169L386.9 246.862C385.875 245.191 384.881 243.51 383.917 241.819L381.745 243.057L379.573 244.295C380.564 246.033 381.585 247.76 382.637 249.475L384.768 248.169ZM378.868 237.81L381.08 236.645C380.157 234.892 379.267 233.129 378.411 231.354L376.159 232.441L373.908 233.528C374.79 235.355 375.706 237.171 376.656 238.974L378.868 237.81ZM373.653 227.001L375.942 225.996C375.153 224.199 374.398 222.391 373.678 220.571L371.353 221.49L369.029 222.41C369.772 224.288 370.55 226.153 371.364 228.006L373.653 227.001ZM369.264 215.901L371.622 215.07C370.971 213.221 370.355 211.36 369.776 209.487L367.388 210.225L364.999 210.963C365.597 212.899 366.233 214.822 366.906 216.731L369.264 215.901ZM365.734 204.474L368.15 203.831C367.645 201.934 367.177 200.024 366.747 198.101L364.308 198.647L361.868 199.192C362.312 201.18 362.796 203.155 363.318 205.117L365.734 204.474ZM363.116 192.754L365.576 192.309C365.231 190.408 364.924 188.494 364.654 186.569L362.178 186.915L359.702 187.262C359.981 189.254 360.299 191.234 360.656 193.2L363.116 192.754ZM361.471 181L363.958 180.753C363.765 178.802 363.609 176.839 363.493 174.862L360.998 175.008L358.502 175.155C358.622 177.199 358.783 179.23 358.983 181.247L361.471 181ZM360.763 168.938L363.263 168.892C363.227 166.969 363.228 165.033 363.267 163.086L360.767 163.036L358.268 162.987C358.228 164.998 358.227 166.997 358.264 168.984L360.763 168.938ZM360.995 157.143L363.491 157.286C363.602 155.341 363.75 153.383 363.937 151.413L361.448 151.178L358.959 150.942C358.767 152.974 358.614 154.993 358.499 157L360.995 157.143ZM362.13 145.138L364.609 145.464C364.867 143.495 365.163 141.514 365.497 139.52L363.032 139.107L360.566 138.694C360.222 140.745 359.918 142.785 359.651 144.812L362.13 145.138ZM364.081 133.41L366.532 133.903C366.911 132.019 367.323 130.125 367.769 128.219L365.335 127.649L362.901 127.079C362.443 129.036 362.019 130.982 361.63 132.918L364.081 133.41ZM366.795 121.822L369.21 122.467C369.725 120.539 370.275 118.599 370.86 116.647L368.465 115.93L366.07 115.212C365.471 117.211 364.908 119.2 364.38 121.177L366.795 121.822ZM370.309 110.084L372.682 110.871C373.273 109.09 373.892 107.299 374.541 105.499L372.189 104.651L369.837 103.804C369.174 105.644 368.54 107.475 367.936 109.298L370.309 110.084ZM374.246 99.163L376.575 100.07C377.283 98.2501 378.021 96.421 378.789 94.5821L376.482 93.6188L374.175 92.6554C373.392 94.5315 372.639 96.3985 371.916 98.2565L374.246 99.163ZM378.9 88.018L381.184 89.0361C382.012 87.1776 382.872 85.3093 383.762 83.431L381.503 82.3603L379.243 81.2896C378.337 83.2022 377.462 85.1056 376.617 86.9999L378.9 88.018ZM384.077 77.0717L386.314 78.1892C387.158 76.4995 388.027 74.8019 388.922 73.0964L386.707 71.9354L384.493 70.7745C383.584 72.5085 382.7 74.235 381.841 75.9541L384.077 77.0717ZM389.488 66.753L391.68 67.9557C392.625 66.2341 393.595 64.5044 394.59 62.7667L392.421 61.5238L390.252 60.2809C389.241 62.0449 388.256 63.8014 387.297 65.5503L389.488 66.753ZM395.508 56.2476L397.655 57.5292C398.702 55.7752 399.775 54.0131 400.874 52.2428L398.751 50.924L396.627 49.6051C395.512 51.3998 394.424 53.1867 393.362 54.966L395.508 56.2476ZM401.955 45.8544L404.058 47.207C405.075 45.6252 406.114 44.037 407.173 42.4422L405.09 41.0591L403.008 39.6759C401.935 41.2907 400.884 42.8993 399.853 44.5018L401.955 45.8544ZM408.351 36.2258L410.413 37.6384C411.515 36.0306 412.637 34.4163 413.78 32.7953L411.737 31.3542L409.695 29.9131C408.538 31.5527 407.403 33.186 406.288 34.8131L408.351 36.2258ZM415.251 26.4442L417.275 27.9128C418.461 26.2786 419.668 24.6379 420.898 22.9905L418.894 21.4954L416.89 20.0003C415.648 21.6651 414.427 23.3235 413.228 24.9756L415.251 26.4442ZM422.666 16.5076L424.65 18.0282C425.286 17.1982 425.928 16.3664 426.575 15.533L424.6 14L422.625 12.467C421.972 13.3086 421.324 14.1486 420.681 14.987L422.666 16.5076Z" fill="#FED883"/>
</svg>
