<svg width="867" height="2233" viewBox="0 0 867 2233" fill="none" xmlns="http://www.w3.org/2000/svg">
<path d="M411.167 14C411.167 21.3638 417.136 27.3333 424.5 27.3333C431.864 27.3333 437.833 21.3638 437.833 14C437.833 6.6362 431.864 0.666667 424.5 0.666667C417.136 0.666667 411.167 6.6362 411.167 14ZM858.773 974L856.355 973.366L856.355 973.366L858.773 974ZM335.5 2231L337.205 2229.17C336.458 2228.47 335.712 2227.78 334.967 2227.08L333.261 2228.91L331.554 2230.74C332.299 2231.43 333.046 2232.13 333.795 2232.83L335.5 2231ZM328.811 2224.75L330.52 2222.92C329.045 2221.54 327.576 2220.16 326.113 2218.79L324.401 2220.61L322.69 2222.43C324.154 2223.81 325.625 2225.19 327.102 2226.57L328.811 2224.75ZM320.031 2216.5L321.745 2214.68C320.296 2213.31 318.853 2211.95 317.416 2210.59L315.699 2212.41L313.982 2214.23C315.42 2215.59 316.865 2216.95 318.316 2218.32L320.031 2216.5ZM311.406 2208.35L313.127 2206.53C311.703 2205.18 310.286 2203.84 308.875 2202.49L307.152 2204.31L305.429 2206.12C306.842 2207.46 308.261 2208.81 309.686 2210.16L311.406 2208.35ZM302.748 2200.11L304.474 2198.3C303.006 2196.9 301.544 2195.5 300.09 2194.11L298.36 2195.91L296.631 2197.72C298.087 2199.11 299.551 2200.51 301.021 2201.92L302.748 2200.11ZM294.015 2191.74L295.748 2189.94C294.308 2188.55 292.875 2187.17 291.449 2185.79L289.712 2187.59L287.976 2189.39C289.404 2190.77 290.84 2192.15 292.282 2193.54L294.015 2191.74ZM285.451 2183.47L287.191 2181.67C285.778 2180.31 284.373 2178.94 282.975 2177.58L281.231 2179.37L279.487 2181.16C280.888 2182.53 282.296 2183.89 283.711 2185.26L285.451 2183.47ZM276.929 2175.17L278.677 2173.39C277.222 2171.96 275.776 2170.55 274.337 2169.13L272.585 2170.92L270.833 2172.7C272.275 2174.12 273.724 2175.54 275.181 2176.96L276.929 2175.17ZM268.287 2166.69L270.043 2164.91C268.619 2163.5 267.202 2162.1 265.793 2160.7L264.033 2162.48L262.273 2164.25C263.685 2165.65 265.104 2167.06 266.531 2168.47L268.287 2166.69ZM259.824 2158.3L261.589 2156.52C260.195 2155.14 258.808 2153.75 257.429 2152.37L255.66 2154.14L253.891 2155.9C255.273 2157.29 256.663 2158.67 258.06 2160.07L259.824 2158.3ZM251.419 2149.88L253.193 2148.11C251.761 2146.67 250.337 2145.24 248.922 2143.8L247.143 2145.56L245.364 2147.32C246.783 2148.75 248.21 2150.19 249.645 2151.64L251.419 2149.88ZM242.915 2141.27L244.699 2139.51C243.3 2138.09 241.908 2136.67 240.525 2135.25L238.736 2137L236.946 2138.74C238.333 2140.16 239.728 2141.59 241.131 2143.02L242.915 2141.27ZM234.604 2132.75L236.398 2131.01C235.031 2129.6 233.671 2128.19 232.319 2126.79L230.519 2128.52L228.719 2130.26C230.075 2131.67 231.438 2133.08 232.809 2134.49L234.604 2132.75ZM226.309 2124.14L228.115 2122.41C226.715 2120.95 225.324 2119.49 223.941 2118.04L222.129 2119.76L220.317 2121.48C221.704 2122.94 223.099 2124.4 224.503 2125.87L226.309 2124.14ZM217.999 2115.4L219.817 2113.68C218.452 2112.24 217.094 2110.79 215.745 2109.35L213.921 2111.06L212.097 2112.77C213.45 2114.22 214.811 2115.67 216.181 2117.12L217.999 2115.4ZM209.893 2106.75L211.724 2105.05C210.365 2103.58 209.014 2102.13 207.672 2100.67L205.834 2102.37L203.997 2104.06C205.343 2105.52 206.698 2106.98 208.063 2108.45L209.893 2106.75ZM201.725 2097.89L203.569 2096.21C202.211 2094.72 200.862 2093.24 199.522 2091.76L197.67 2093.44L195.818 2095.12C197.163 2096.6 198.517 2098.09 199.88 2099.58L201.725 2097.89ZM193.669 2089.01L195.528 2087.34C194.206 2085.87 192.893 2084.4 191.589 2082.94L189.722 2084.6L187.855 2086.26C189.165 2087.73 190.483 2089.21 191.81 2090.68L193.669 2089.01ZM185.787 2080.16L187.661 2078.51C186.317 2076.99 184.983 2075.47 183.658 2073.95L181.776 2075.6L179.893 2077.24C181.223 2078.76 182.563 2080.29 183.912 2081.82L185.787 2080.16ZM177.822 2071.05L179.713 2069.41C178.408 2067.9 177.112 2066.4 175.825 2064.89L173.926 2066.52L172.027 2068.14C173.319 2069.65 174.62 2071.17 175.931 2072.68L177.822 2071.05ZM170.086 2062.01L171.994 2060.39C170.713 2058.88 169.441 2057.37 168.178 2055.86L166.261 2057.47L164.344 2059.07C165.613 2060.59 166.891 2062.1 168.178 2063.62L170.086 2062.01ZM162.378 2052.8L164.304 2051.21C163.023 2049.66 161.752 2048.11 160.491 2046.57L158.555 2048.15L156.62 2049.73C157.887 2051.28 159.165 2052.84 160.452 2054.39L162.378 2052.8ZM154.792 2043.52L156.738 2041.95C155.497 2040.41 154.265 2038.88 153.044 2037.34L151.089 2038.9L149.134 2040.46C150.362 2042 151.599 2043.54 152.847 2045.09L154.792 2043.52ZM147.375 2034.21L149.34 2032.66C148.092 2031.08 146.854 2029.49 145.627 2027.91L143.651 2029.44L141.675 2030.97C142.91 2032.57 144.155 2034.16 145.41 2035.76L147.375 2034.21ZM139.99 2024.69L141.976 2023.17C140.769 2021.59 139.573 2020.01 138.387 2018.44L136.39 2019.94L134.393 2021.45C135.586 2023.03 136.79 2024.62 138.003 2026.2L139.99 2024.69ZM132.853 2015.21L134.86 2013.72C133.658 2012.1 132.467 2010.48 131.286 2008.87L129.267 2010.34L127.248 2011.81C128.436 2013.44 129.635 2015.07 130.845 2016.7L132.853 2015.21ZM125.734 2005.46L127.764 2004C126.601 2002.38 125.448 2000.76 124.307 1999.15L122.265 2000.59L120.223 2002.03C121.372 2003.66 122.532 2005.29 123.703 2006.92L125.734 2005.46ZM118.859 1995.73L120.913 1994.3C119.776 1992.67 118.651 1991.03 117.536 1989.4L115.471 1990.8L113.405 1992.21C114.528 1993.86 115.661 1995.51 116.806 1997.15L118.859 1995.73ZM112.092 1985.8L114.17 1984.41C113.058 1982.75 111.958 1981.09 110.869 1979.43L108.779 1980.81L106.69 1982.18C107.787 1983.85 108.895 1985.52 110.014 1987.19L112.092 1985.8ZM105.532 1975.81L107.634 1974.46C106.562 1972.8 105.501 1971.13 104.451 1969.47L102.337 1970.8L100.223 1972.14C101.281 1973.81 102.35 1975.49 103.43 1977.17L105.532 1975.81ZM99.1395 1965.68L101.266 1964.37C100.216 1962.67 99.1761 1960.97 98.1477 1959.27L96.0086 1960.56L93.8695 1961.86C94.9062 1963.57 95.954 1965.28 97.0129 1967L99.1395 1965.68ZM92.9439 1955.44L95.0954 1954.17C94.089 1952.47 93.0934 1950.77 92.1086 1949.06L89.9446 1950.31L87.7806 1951.57C88.7737 1953.28 89.7775 1955 90.7923 1956.71L92.9439 1955.44ZM86.9547 1945.09L89.1313 1943.86C88.149 1942.12 87.1778 1940.38 86.2177 1938.64L84.0286 1939.85L81.8396 1941.05C82.808 1942.81 83.7875 1944.56 84.7782 1946.32L86.9547 1945.09ZM81.1686 1934.6L83.37 1933.41C82.4317 1931.67 81.5042 1929.92 80.5875 1928.18L78.3739 1929.34L76.1602 1930.5C77.085 1932.26 78.0206 1934.02 78.9672 1935.78L81.1686 1934.6ZM75.6123 1924.01L77.8382 1922.87C76.9306 1921.09 76.0339 1919.32 75.148 1917.54L72.91 1918.65L70.6721 1919.77C71.5659 1921.56 72.4707 1923.36 73.3864 1925.15L75.6123 1924.01ZM70.2728 1913.28L72.5226 1912.19C71.6582 1910.41 70.8045 1908.62 69.9613 1906.83L67.6997 1907.9L65.4382 1908.96C66.2891 1910.77 67.1506 1912.57 68.0229 1914.37L70.2728 1913.28ZM65.1757 1902.46L67.4488 1901.42C66.6205 1899.61 65.8027 1897.8 64.9955 1895.99L62.7111 1897L60.4267 1898.02C61.2415 1899.85 62.0667 1901.68 62.9026 1903.5L65.1757 1902.46ZM60.3095 1891.52L62.6049 1890.53C61.8183 1888.71 61.0422 1886.88 60.2762 1885.05L57.97 1886.02L55.6639 1886.98C56.4369 1888.83 57.2203 1890.67 58.0141 1892.51L60.3095 1891.52ZM55.6904 1880.48L58.007 1879.54C57.2606 1877.7 56.5242 1875.86 55.7978 1874.01L53.471 1874.93L51.1442 1875.84C51.8773 1877.71 52.6204 1879.57 53.3738 1881.42L55.6904 1880.48ZM51.3117 1869.34L53.6483 1868.45C52.9417 1866.59 52.2449 1864.73 51.5579 1862.86L49.2116 1863.73L46.8654 1864.59C47.5588 1866.48 48.2619 1868.35 48.975 1870.23L51.3117 1869.34ZM47.1783 1858.11L49.5337 1857.27C48.8695 1855.4 48.2148 1853.53 47.5694 1851.65L45.2052 1852.47L42.8409 1853.28C43.4921 1855.17 44.1527 1857.06 44.8229 1858.95L47.1783 1858.11ZM43.2884 1846.79L45.6612 1846C45.0344 1844.11 44.4168 1842.22 43.8083 1840.32L41.4274 1841.08L39.0465 1841.84C39.6603 1843.76 40.2833 1845.67 40.9157 1847.58L43.2884 1846.79ZM39.6355 1835.39L42.0242 1834.65C41.4407 1832.76 40.8658 1830.86 40.2996 1828.96L37.9035 1829.67L35.5075 1830.39C36.0785 1832.3 36.6582 1834.22 37.2469 1836.12L39.6355 1835.39ZM36.2237 1823.92L38.6269 1823.23C38.0778 1821.32 37.5373 1819.4 37.0052 1817.47L34.5953 1818.14L32.1854 1818.8C32.7219 1820.74 33.2669 1822.68 33.8205 1824.61L36.2237 1823.92ZM33.0337 1812.37L35.45 1811.73C34.9435 1809.82 34.445 1807.9 33.9544 1805.98L31.5322 1806.6L29.1099 1807.22C29.6044 1809.16 30.1069 1811.09 30.6174 1813.01L33.0337 1812.37ZM30.0782 1800.79L32.5061 1800.2C32.0312 1798.26 31.564 1796.32 31.1044 1794.37L28.6711 1794.94L26.2377 1795.52C26.7008 1797.48 27.1716 1799.44 27.6502 1801.39L30.0782 1800.79ZM27.3231 1789.1L29.7615 1788.55C29.3273 1786.63 28.9002 1784.71 28.4803 1782.77L26.0372 1783.3L23.594 1783.83C24.017 1785.78 24.4472 1787.72 24.8847 1789.66L27.3231 1789.1ZM24.794 1777.45L27.2416 1776.94C26.8357 1774.99 26.4368 1773.03 26.0448 1771.07L23.5931 1771.56L21.1413 1772.05C21.536 1774.03 21.9377 1776 22.3465 1777.96L24.794 1777.45ZM22.4385 1765.64L24.8941 1765.17C24.5263 1763.24 24.1648 1761.31 23.8096 1759.37L21.3504 1759.82L18.8911 1760.27C19.2486 1762.22 19.6125 1764.17 19.9828 1766.11L22.4385 1765.64ZM20.3004 1753.94L22.763 1753.51C22.4204 1751.55 22.084 1749.59 21.7537 1747.61L19.2879 1748.02L16.8222 1748.44C17.1545 1750.42 17.493 1752.4 17.8378 1754.37L20.3004 1753.94ZM18.3123 1742.05L20.7811 1741.66C20.4707 1739.72 20.166 1737.76 19.867 1735.8L17.3955 1736.18L14.9241 1736.56C15.2249 1738.53 15.5314 1740.49 15.8436 1742.45L18.3123 1742.05ZM16.5195 1730.3L18.9934 1729.94C18.7078 1727.98 18.4276 1726.01 18.1527 1724.03L15.6765 1724.38L13.2003 1724.72C13.4766 1726.71 13.7583 1728.69 14.0456 1730.66L16.5195 1730.3ZM14.8659 1718.4L17.3443 1718.07C17.0823 1716.09 16.8255 1714.1 16.5738 1712.1L14.0934 1712.42L11.613 1712.73C11.866 1714.74 12.1241 1716.73 12.3875 1718.73L14.8659 1718.4ZM13.3719 1706.55L15.8541 1706.25C15.6189 1704.29 15.3886 1702.32 15.1629 1700.35L12.6791 1700.63L10.1952 1700.92C10.4219 1702.9 10.6534 1704.88 10.8897 1706.85L13.3719 1706.55ZM12.0145 1694.66L14.4999 1694.39C14.2835 1692.4 14.0718 1690.4 13.8646 1688.39L11.3777 1688.64L8.8909 1688.9C9.09904 1690.92 9.31175 1692.93 9.52911 1694.93L12.0145 1694.66ZM10.7803 1682.69L13.2684 1682.45C13.0776 1680.5 12.8909 1678.54 12.7083 1676.57L10.219 1676.8L7.7297 1677.03C7.91309 1679.01 8.10055 1680.98 8.29217 1682.94L10.7803 1682.69ZM9.6821 1670.86L12.1725 1670.64C11.9979 1668.65 11.8273 1666.66 11.6606 1664.66L9.16917 1664.86L6.67778 1665.07C6.84513 1667.08 7.01642 1669.08 7.19171 1671.08L9.6821 1670.86ZM8.67978 1658.82L11.1721 1658.62C11.0173 1656.65 10.8661 1654.68 10.7185 1652.69L8.22535 1652.88L5.73223 1653.06C5.88036 1655.05 6.03208 1657.04 6.18748 1659.01L8.67978 1658.82ZM7.79887 1646.97L10.2927 1646.8C10.1542 1644.83 10.0192 1642.85 9.88744 1640.86L7.39291 1641.02L4.89837 1641.19C5.03052 1643.18 5.16605 1645.17 5.30501 1647.15L7.79887 1646.97ZM7.0071 1635.02L9.50226 1634.86C9.37717 1632.85 9.25536 1630.84 9.13679 1628.81L6.64106 1628.96L4.14534 1629.11C4.26427 1631.14 4.38645 1633.16 4.51194 1635.17L7.0071 1635.02ZM6.30223 1622.99L8.79846 1622.85C8.69092 1620.9 8.58628 1618.94 8.48448 1616.96L5.98781 1617.09L3.49113 1617.22C3.59321 1619.2 3.69815 1621.17 3.80601 1623.13L6.30223 1622.99ZM5.6905 1611.14L8.18759 1611.02C8.09143 1609.03 7.99807 1607.04 7.90745 1605.03L5.40999 1605.14L2.91254 1605.26C3.0034 1607.27 3.09701 1609.27 3.19342 1611.26L5.6905 1611.14ZM5.14595 1599.09L7.64374 1598.99C7.55937 1596.98 7.47762 1594.97 7.39846 1592.95L4.90038 1593.05L2.40229 1593.15C2.48164 1595.17 2.56358 1597.19 2.64817 1599.2L5.14595 1599.09ZM4.67805 1587.17L7.1764 1587.07C7.10475 1585.11 7.03546 1583.13 6.96848 1581.15L4.4699 1581.23L1.97132 1581.32C2.03845 1583.31 2.1079 1585.29 2.17971 1587.26L4.67805 1587.17ZM4.27562 1575.25L6.77441 1575.18C6.712 1573.18 6.65185 1571.17 6.59391 1569.15L4.09494 1569.22L1.59597 1569.29C1.65402 1571.32 1.7143 1573.33 1.77684 1575.33L4.27562 1575.25ZM3.92757 1563.14L6.4267 1563.08C6.37472 1561.1 6.32479 1559.12 6.27685 1557.13L3.77757 1557.19L1.2783 1557.25C1.32632 1559.24 1.37635 1561.23 1.42843 1563.21L3.92757 1563.14ZM3.64173 1551.29L6.14113 1551.23C6.0978 1549.26 6.05636 1547.28 6.01677 1545.29L3.51726 1545.34L1.01776 1545.39C1.05741 1547.38 1.09893 1549.37 1.14234 1551.34L3.64173 1551.29ZM3.40391 1539.34L5.90351 1539.3C5.86758 1537.29 5.83346 1535.28 5.80111 1533.26L3.30143 1533.3L0.801749 1533.34C0.834151 1535.36 0.868325 1537.38 0.904312 1539.39L3.40391 1539.34ZM3.20957 1527.2L5.70932 1527.16C5.68155 1525.2 5.65538 1523.23 5.63077 1521.26L3.13096 1521.29L0.631157 1521.32C0.6558 1523.3 0.682008 1525.27 0.709819 1527.24L3.20957 1527.2ZM3.06231 1515.38L5.56216 1515.35C5.5408 1513.38 5.52094 1511.4 5.50254 1509.41L3.00265 1509.43L0.502757 1509.45C0.521177 1511.44 0.541063 1513.43 0.562451 1515.41L3.06231 1515.38ZM2.95178 1503.43L5.45171 1503.41C5.4362 1501.4 5.42213 1499.39 5.40944 1497.37L2.90949 1497.38L0.40954 1497.4C0.422241 1499.42 0.436335 1501.44 0.451859 1503.45L2.95178 1503.43ZM2.87555 1491.29L5.37552 1491.28C5.36591 1489.31 5.35757 1487.33 5.35046 1485.34L2.85047 1485.35L0.35049 1485.36C0.357606 1487.35 0.36596 1489.33 0.375583 1491.3L2.87555 1491.29ZM2.83302 1479.45L5.33301 1479.45C5.32837 1477.47 5.3249 1475.49 5.32258 1473.51L2.82258 1473.51L0.32258 1473.51C0.32491 1475.5 0.328381 1477.48 0.333022 1479.46L2.83302 1479.45ZM2.81897 1467.52L5.31897 1467.52C5.31889 1465.52 5.31992 1463.51 5.32202 1461.49L2.82202 1461.49L0.322019 1461.49C0.319917 1463.51 0.318891 1465.52 0.318974 1467.52L2.81897 1467.52ZM2.83152 1455.41L5.33152 1455.42C5.33568 1453.41 5.34086 1451.4 5.34703 1449.38L2.84704 1449.37L0.34705 1449.37C0.340878 1451.39 0.335693 1453.4 0.331526 1455.41L2.83152 1455.41ZM2.86766 1443.5L5.36764 1443.51C5.37542 1441.54 5.38408 1439.57 5.39362 1437.59L2.89365 1437.57L0.393678 1437.56C0.384135 1439.54 0.37546 1441.52 0.36768 1443.49L2.86766 1443.5ZM2.92484 1431.61L5.4248 1431.63C5.43605 1429.63 5.44813 1427.63 5.46103 1425.62L2.96108 1425.61L0.46113 1425.59C0.448225 1427.6 0.436133 1429.6 0.424882 1431.6L2.92484 1431.61ZM3.0022 1419.56L5.50213 1419.58C5.51663 1417.55 5.53191 1415.52 5.54795 1413.49L3.04803 1413.47L0.548108 1413.45C0.532057 1415.48 0.516765 1417.52 0.50226 1419.54L3.0022 1419.56ZM3.09703 1407.49L5.59694 1407.51C5.61361 1405.56 5.63094 1403.6 5.64892 1401.63L3.14903 1401.61L0.64913 1401.58C0.631143 1403.55 0.613799 1405.52 0.59712 1407.47L3.09703 1407.49ZM3.20488 1395.68L5.70476 1395.7C5.724 1393.72 5.74386 1391.73 5.76431 1389.74L3.26444 1389.71L0.764571 1389.68C0.744109 1391.68 0.724242 1393.67 0.704995 1395.65L3.20488 1395.68ZM3.32758 1383.7L5.82743 1383.73C5.84905 1381.72 5.87124 1379.7 5.89399 1377.68L3.39414 1377.65L0.894302 1377.62C0.871552 1379.65 0.84935 1381.66 0.827721 1383.67L3.32758 1383.7ZM3.464 1371.56L5.96383 1371.59C5.97574 1370.57 5.98777 1369.55 5.99993 1368.53L3.50011 1368.5L1.00028 1368.47C0.988118 1369.49 0.976081 1370.51 0.964175 1371.53L3.464 1371.56ZM3.50011 1368.5L5.99993 1368.53C6.01242 1367.48 6.02879 1366.44 6.04902 1365.4L3.5495 1365.35L1.04997 1365.3C1.02949 1366.35 1.01292 1367.41 1.00028 1368.47L3.50011 1368.5ZM3.71817 1359.13L6.21665 1359.21C6.28788 1357.17 6.37442 1355.15 6.47613 1353.14L3.97935 1353.02L1.48256 1352.89C1.37949 1354.92 1.29182 1356.97 1.21969 1359.04L3.71817 1359.13ZM4.33223 1347.02L6.82664 1347.18C6.95854 1345.22 7.10548 1343.27 7.2673 1341.33L4.77602 1341.12L2.28475 1340.92C2.12058 1342.88 1.97157 1344.85 1.83783 1346.85L4.33223 1347.02ZM5.30991 1335.34L7.79726 1335.59C7.9887 1333.7 8.19488 1331.82 8.41566 1329.96L5.93309 1329.66L3.45051 1329.37C3.22626 1331.26 3.01689 1333.17 2.82256 1335.09L5.30991 1335.34ZM6.70506 1323.66L9.18146 1324C9.46392 1321.96 9.76451 1319.94 10.083 1317.94L7.61424 1317.55L5.14544 1317.15C4.82144 1319.18 4.51579 1321.24 4.22867 1323.31L6.70506 1323.66ZM8.63226 1311.57L11.0921 1312.02C11.4463 1310.06 11.8182 1308.13 12.2076 1306.22L9.75799 1305.72L7.30836 1305.22C6.91163 1307.17 6.53291 1309.14 6.17236 1311.12L8.63226 1311.57ZM10.9903 1300L13.4282 1300.55C13.8524 1298.69 14.294 1296.84 14.7527 1295.01L12.3281 1294.4L9.90343 1293.8C9.43537 1295.66 8.98497 1297.54 8.5524 1299.45L10.9903 1300ZM13.8582 1288.62L16.2671 1289.29C16.8142 1287.32 17.382 1285.37 17.9703 1283.45L15.5799 1282.72L13.1896 1281.99C12.5883 1283.95 12.0082 1285.94 11.4494 1287.95L13.8582 1288.62ZM17.4263 1276.97L19.7959 1277.76C20.4247 1275.89 21.0737 1274.05 21.7425 1272.23L19.3957 1271.37L17.0489 1270.5C16.3641 1272.37 15.6999 1274.26 15.0566 1276.17L17.4263 1276.97ZM21.4866 1265.91L23.8083 1266.84C24.5186 1265.06 25.2487 1263.3 25.9983 1261.57L23.7042 1260.58L21.4102 1259.59C20.6415 1261.36 19.893 1263.16 19.165 1264.98L21.4866 1265.91ZM26.2332 1254.98L28.4948 1256.05C29.3494 1254.23 30.2265 1252.45 31.1256 1250.69L28.8993 1249.55L26.6731 1248.41C25.7495 1250.22 24.8489 1252.06 23.9717 1253.92L26.2332 1254.98ZM31.7005 1244.28L33.8887 1245.49C34.8316 1243.78 35.7963 1242.1 36.7823 1240.45L34.6349 1239.17L32.4876 1237.89C31.4734 1239.59 30.4815 1241.32 29.5123 1243.07L31.7005 1244.28ZM37.7006 1234.21L39.8045 1235.56C40.8851 1233.88 41.9891 1232.22 43.1159 1230.6L41.0605 1229.17L39.005 1227.75C37.8449 1229.43 36.7087 1231.13 35.5967 1232.86L37.7006 1234.21ZM44.572 1224.29L46.5762 1225.78C47.7524 1224.2 48.9515 1222.65 50.1729 1221.13L48.2225 1219.57L46.2721 1218C45.014 1219.57 43.7791 1221.17 42.5678 1222.79L44.572 1224.29ZM52.0098 1215.01L53.9042 1216.64C55.1732 1215.17 56.4643 1213.72 57.7772 1212.3L55.941 1210.6L54.1047 1208.91C52.7524 1210.37 51.4225 1211.86 50.1154 1213.38L52.0098 1215.01ZM60.0886 1206.27L61.8637 1208.03C63.2484 1206.63 64.6555 1205.26 66.0846 1203.92L64.372 1202.1L62.6595 1200.28C61.1882 1201.66 59.7394 1203.07 58.3134 1204.51L60.0886 1206.27ZM68.7889 1198.09L70.4377 1199.97C71.9106 1198.67 73.4051 1197.41 74.921 1196.17L73.3367 1194.23L71.7524 1192.3C70.1933 1193.57 68.6557 1194.88 67.1401 1196.21L68.7889 1198.09ZM78.0047 1190.54L79.524 1192.52C81.0749 1191.33 82.6465 1190.17 84.2386 1189.03L82.7842 1187L81.3298 1184.97C79.6944 1186.14 78.0795 1187.33 76.4854 1188.55L78.0047 1190.54ZM87.6861 1183.61L89.0757 1185.69C90.7083 1184.6 92.361 1183.53 94.0333 1182.48L92.7082 1180.36L91.383 1178.24C89.6679 1179.31 87.9722 1180.41 86.2965 1181.53L87.6861 1183.61ZM97.848 1177.26L99.1094 1179.41C100.795 1178.43 102.499 1177.47 104.221 1176.52L103.022 1174.33L101.823 1172.14C100.059 1173.1 98.3135 1174.09 96.5866 1175.1L97.848 1177.26ZM108.256 1171.56L109.395 1173.79C111.137 1172.89 112.897 1172.02 114.675 1171.17L113.595 1168.92L112.515 1166.66C110.698 1167.53 108.899 1168.42 107.117 1169.34L108.256 1171.56ZM119.037 1166.4L120.059 1168.68C121.871 1167.87 123.7 1167.07 125.546 1166.3L124.58 1163.99L123.614 1161.69C121.731 1162.48 119.865 1163.29 118.015 1164.11L119.037 1166.4ZM130.066 1161.77L130.979 1164.1C132.789 1163.39 134.614 1162.7 136.454 1162.02L135.593 1159.67L134.732 1157.33C132.858 1158.01 130.999 1158.72 129.154 1159.44L130.066 1161.77ZM141.208 1157.68L142.019 1160.05C143.888 1159.4 145.772 1158.78 147.671 1158.17L146.907 1155.79L146.144 1153.41C144.215 1154.03 142.298 1154.66 140.396 1155.32L141.208 1157.68ZM152.691 1154L153.408 1156.39C155.279 1155.83 157.163 1155.29 159.059 1154.76L158.386 1152.35L157.714 1149.94C155.788 1150.48 153.875 1151.04 151.974 1151.6L152.691 1154ZM164.084 1150.81L164.716 1153.23C166.613 1152.74 168.523 1152.26 170.445 1151.79L169.854 1149.36L169.262 1146.93C167.314 1147.4 165.378 1147.89 163.453 1148.39L164.084 1150.81ZM175.693 1147.99L176.245 1150.43C178.19 1149.98 180.147 1149.56 182.115 1149.14L181.6 1146.7L181.084 1144.25C179.092 1144.67 177.11 1145.1 175.14 1145.55L175.693 1147.99ZM187.466 1145.5L187.946 1147.96C189.854 1147.58 191.773 1147.22 193.701 1146.87L193.254 1144.41L192.806 1141.95C190.856 1142.31 188.916 1142.67 186.985 1143.05L187.466 1145.5ZM199.099 1143.39L199.515 1145.85C201.462 1145.52 203.42 1145.21 205.386 1144.9L205.001 1142.43L204.616 1139.96C202.629 1140.27 200.652 1140.59 198.683 1140.92L199.099 1143.39ZM210.957 1141.54L211.314 1144.01C213.299 1143.73 215.292 1143.45 217.295 1143.19L216.967 1140.71L216.639 1138.23C214.618 1138.5 212.605 1138.77 210.601 1139.06L210.957 1141.54ZM222.81 1139.96L223.113 1142.45C225.055 1142.21 227.006 1141.98 228.964 1141.76L228.686 1139.28L228.409 1136.79C226.434 1137.01 224.467 1137.24 222.508 1137.48L222.81 1139.96ZM234.608 1138.64L234.862 1141.13C236.835 1140.93 238.816 1140.74 240.804 1140.55L240.572 1138.06L240.341 1135.57C238.338 1135.76 236.342 1135.95 234.353 1136.16L234.608 1138.64ZM246.579 1137.53L246.789 1140.02C248.776 1139.85 250.769 1139.69 252.769 1139.54L252.58 1137.05L252.39 1134.56C250.377 1134.71 248.37 1134.87 246.369 1135.04L246.579 1137.53ZM258.464 1136.62L258.635 1139.12C260.596 1138.98 262.563 1138.86 264.536 1138.74L264.384 1136.24L264.231 1133.75C262.246 1133.87 260.267 1134 258.294 1134.13L258.464 1136.62ZM270.338 1135.9L270.473 1138.4C272.457 1138.29 274.448 1138.19 276.443 1138.09L276.325 1135.6L276.206 1133.1C274.2 1133.19 272.199 1133.3 270.203 1133.4L270.338 1135.9ZM282.344 1135.33L282.447 1137.83C284.435 1137.75 286.429 1137.67 288.427 1137.6L288.339 1135.1L288.251 1132.6C286.243 1132.67 284.24 1132.75 282.241 1132.83L282.344 1135.33ZM294.252 1134.91L294.326 1137.41C296.297 1137.35 298.272 1137.3 300.252 1137.25L300.19 1134.75L300.129 1132.25C298.141 1132.3 296.157 1132.35 294.177 1132.41L294.252 1134.91ZM306.155 1134.62L306.204 1137.12C308.192 1137.08 310.184 1137.04 312.181 1137.01L312.143 1134.51L312.106 1132.01C310.102 1132.04 308.102 1132.08 306.106 1132.12L306.155 1134.62ZM318.155 1134.44L318.181 1136.94C320.175 1136.92 322.172 1136.9 324.173 1136.89L324.157 1134.39L324.141 1131.89C322.134 1131.9 320.13 1131.92 318.129 1131.94L318.155 1134.44ZM330.085 1134.36L330.091 1136.86C332.068 1136.86 334.047 1136.86 336.029 1136.86L336.032 1134.36L336.035 1131.86C334.046 1131.86 332.061 1131.86 330.079 1131.86L330.085 1134.36ZM341.997 1134.37L341.986 1136.87C343.975 1136.88 345.966 1136.89 347.96 1136.91L347.979 1134.41L347.997 1131.91C345.998 1131.89 344.002 1131.88 342.008 1131.87L341.997 1134.37ZM353.976 1134.46L353.95 1136.96C355.948 1136.98 357.948 1137.01 359.951 1137.03L359.983 1134.53L360.016 1132.03C358.009 1132.01 356.004 1131.98 354.002 1131.96L353.976 1134.46ZM365.924 1134.62L365.885 1137.12C367.866 1137.15 369.848 1137.18 371.833 1137.21L371.876 1134.71L371.92 1132.21C369.932 1132.18 367.946 1132.15 365.962 1132.12L365.924 1134.62ZM377.84 1134.82L377.791 1137.32C379.78 1137.36 381.769 1137.4 383.761 1137.44L383.814 1134.95L383.866 1132.45C381.872 1132.4 379.88 1132.36 377.888 1132.32L377.84 1134.82ZM389.796 1135.08L389.74 1137.58C391.734 1137.62 393.73 1137.67 395.727 1137.72L395.787 1135.22L395.847 1132.72C393.848 1132.67 391.85 1132.62 389.853 1132.58L389.796 1135.08ZM401.752 1135.36L401.689 1137.86C403.674 1137.91 405.66 1137.96 407.647 1138.01L407.712 1135.51L407.777 1133.02C405.789 1132.96 403.801 1132.91 401.814 1132.86L401.752 1135.36ZM413.677 1135.67L413.611 1138.17C415.599 1138.22 417.588 1138.28 419.578 1138.33L419.646 1135.83L419.714 1133.33C417.723 1133.28 415.733 1133.23 413.744 1133.17L413.677 1135.67ZM425.618 1135.99L425.549 1138.49C427.54 1138.55 429.531 1138.6 431.523 1138.66L431.592 1136.16L431.66 1133.66C429.669 1133.61 427.678 1133.55 425.686 1133.5L425.618 1135.99ZM437.565 1136.32L437.497 1138.82C439.488 1138.88 441.479 1138.93 443.471 1138.99L443.538 1136.49L443.606 1133.99C441.616 1133.93 439.625 1133.88 437.634 1133.82L437.565 1136.32ZM449.51 1136.65L449.444 1139.15C451.434 1139.2 453.425 1139.25 455.415 1139.3L455.48 1136.8L455.544 1134.3C453.556 1134.25 451.566 1134.2 449.577 1134.15L449.51 1136.65ZM461.446 1136.96L461.383 1139.45C463.372 1139.5 465.361 1139.55 467.348 1139.6L467.408 1137.1L467.467 1134.6C465.482 1134.55 463.495 1134.51 461.508 1134.46L461.446 1136.96ZM473.368 1137.24L473.312 1139.74C475.311 1139.78 477.309 1139.83 479.307 1139.87L479.359 1137.37L479.412 1134.87C477.417 1134.83 475.421 1134.79 473.424 1134.74L473.368 1137.24ZM485.343 1137.49L485.294 1139.99C487.289 1140.03 489.282 1140.07 491.274 1140.1L491.318 1137.6L491.361 1135.1C489.373 1135.07 487.382 1135.03 485.391 1134.99L485.343 1137.49ZM497.283 1137.7L497.245 1140.2C499.234 1140.23 501.221 1140.26 503.206 1140.28L503.238 1137.78L503.27 1135.28C501.289 1135.26 499.306 1135.23 497.321 1135.2L497.283 1137.7ZM509.182 1137.85L509.156 1140.35C511.159 1140.37 513.161 1140.39 515.16 1140.4L515.178 1137.9L515.197 1135.4C513.202 1135.39 511.206 1135.37 509.207 1135.35L509.182 1137.85ZM521.177 1137.94L521.166 1140.44C523.166 1140.45 525.163 1140.45 527.158 1140.45L527.161 1137.95L527.163 1135.45C525.174 1135.45 523.182 1135.45 521.188 1135.44L521.177 1137.94ZM533.128 1137.95L533.135 1140.45C535.124 1140.44 537.111 1140.43 539.094 1140.42L539.078 1137.92L539.063 1135.42C537.085 1135.43 535.105 1135.44 533.122 1135.45L533.128 1137.95ZM545.01 1137.87L545.036 1140.37C547.038 1140.35 549.037 1140.33 551.032 1140.3L550.995 1137.8L550.959 1135.3C548.971 1135.33 546.979 1135.35 544.985 1135.37L545.01 1137.87ZM557.009 1137.7L557.057 1140.2C559.062 1140.16 561.063 1140.11 563.061 1140.06L563 1137.57L562.939 1135.07C560.951 1135.11 558.957 1135.16 556.961 1135.2L557.009 1137.7ZM568.967 1137.41L569.041 1139.9C571.03 1139.85 573.016 1139.78 574.997 1139.71L574.91 1137.21L574.823 1134.72C572.851 1134.78 570.875 1134.85 568.894 1134.91L568.967 1137.41ZM580.827 1136.99L580.928 1139.49C582.928 1139.41 584.924 1139.32 586.915 1139.23L586.798 1136.73L586.682 1134.23C584.701 1134.33 582.716 1134.41 580.725 1134.49L580.827 1136.99ZM592.819 1136.43L592.952 1138.93C594.959 1138.82 596.961 1138.71 598.958 1138.59L598.808 1136.09L598.658 1133.59C596.673 1133.71 594.682 1133.83 592.686 1133.93L592.819 1136.43ZM604.765 1135.71L604.933 1138.21C606.92 1138.07 608.9 1137.93 610.876 1137.78L610.689 1135.29L610.502 1132.8C608.54 1132.94 606.571 1133.08 604.597 1133.22L604.765 1135.71ZM616.578 1134.83L616.784 1137.32C618.786 1137.15 620.782 1136.98 622.772 1136.8L622.545 1134.31L622.318 1131.82C620.342 1132 618.36 1132.17 616.372 1132.33L616.578 1134.83ZM628.553 1133.73L628.802 1136.22C630.805 1136.02 632.801 1135.81 634.791 1135.59L634.519 1133.11L634.247 1130.62C632.273 1130.84 630.292 1131.05 628.303 1131.25L628.553 1133.73ZM640.442 1132.43L640.739 1134.91C642.714 1134.68 644.683 1134.43 646.644 1134.18L646.322 1131.7L646.001 1129.22C644.057 1129.47 642.105 1129.71 640.146 1129.95L640.442 1132.43ZM652.157 1130.91L652.504 1133.39C654.514 1133.1 656.516 1132.81 658.509 1132.51L658.133 1130.04L657.758 1127.56C655.783 1127.87 653.801 1128.15 651.809 1128.43L652.157 1130.91ZM664.089 1129.1L664.494 1131.56C666.48 1131.24 668.458 1130.9 670.427 1130.55L669.991 1128.09L669.555 1125.63C667.607 1125.97 665.65 1126.31 663.683 1126.63L664.089 1129.1ZM675.838 1127.01L676.306 1129.47C678.257 1129.1 680.198 1128.71 682.13 1128.32L681.629 1125.87L681.128 1123.42C679.218 1123.81 677.299 1124.19 675.37 1124.56L675.838 1127.01ZM687.441 1124.64L687.977 1127.08C689.968 1126.64 691.948 1126.19 693.917 1125.73L693.343 1123.3L692.77 1120.86C690.826 1121.32 688.871 1121.76 686.905 1122.2L687.441 1124.64ZM699.18 1121.87L699.791 1124.3C701.739 1123.8 703.675 1123.3 705.6 1122.78L704.948 1120.36L704.296 1117.95C702.398 1118.46 700.489 1118.96 698.568 1119.45L699.18 1121.87ZM710.647 1118.77L711.34 1121.17C713.245 1120.62 715.138 1120.06 717.019 1119.48L716.282 1117.09L715.546 1114.7C713.694 1115.27 711.83 1115.83 709.953 1116.37L710.647 1118.77ZM722.057 1115.25L722.84 1117.62C724.767 1116.99 726.681 1116.34 728.581 1115.67L727.751 1113.31L726.92 1110.95C725.052 1111.61 723.17 1112.25 721.274 1112.88L722.057 1115.25ZM733.362 1111.27L734.241 1113.61C736.114 1112.9 737.973 1112.18 739.818 1111.44L738.888 1109.12L737.957 1106.8C736.147 1107.53 734.322 1108.24 732.482 1108.93L733.362 1111.27ZM744.327 1106.87L745.309 1109.17C747.183 1108.37 749.041 1107.55 750.884 1106.71L749.847 1104.44L748.809 1102.16C747.004 1102.98 745.182 1103.79 743.345 1104.57L744.327 1106.87ZM755.281 1101.88L756.375 1104.12C758.189 1103.24 759.986 1102.34 761.767 1101.41L760.616 1099.19L759.465 1096.98C757.722 1097.88 755.963 1098.76 754.187 1099.63L755.281 1101.88ZM765.85 1096.39L767.06 1098.58C768.808 1097.61 770.538 1096.62 772.251 1095.61L770.981 1093.46L769.711 1091.31C768.038 1092.29 766.348 1093.26 764.64 1094.2L765.85 1096.39ZM776.111 1090.33L777.443 1092.45C779.155 1091.37 780.849 1090.27 782.523 1089.15L781.129 1087.07L779.735 1085C778.103 1086.09 776.451 1087.17 774.78 1088.22L776.111 1090.33ZM786.033 1083.67L787.489 1085.7C789.125 1084.53 790.742 1083.33 792.338 1082.11L790.819 1080.12L789.3 1078.14C787.745 1079.33 786.17 1080.49 784.576 1081.64L786.033 1083.67ZM795.487 1076.43L797.069 1078.37C798.627 1077.1 800.164 1075.8 801.68 1074.48L800.037 1072.59L798.393 1070.71C796.918 1072 795.422 1073.26 793.906 1074.5L795.487 1076.43ZM804.462 1068.6L806.167 1070.43C807.642 1069.05 809.095 1067.65 810.527 1066.22L808.762 1064.45L806.997 1062.68C805.605 1064.07 804.191 1065.43 802.757 1066.77L804.462 1068.6ZM812.933 1060.15L814.757 1061.86C816.133 1060.39 817.487 1058.9 818.819 1057.38L816.938 1055.73L815.057 1054.08C813.762 1055.56 812.446 1057.01 811.109 1058.44L812.933 1060.15ZM820.749 1051.23L822.684 1052.81C823.951 1051.26 825.196 1049.68 826.419 1048.08L824.432 1046.57L822.445 1045.05C821.256 1046.61 820.046 1048.14 818.814 1049.64L820.749 1051.23ZM827.984 1041.75L830.021 1043.2C831.199 1041.54 832.355 1039.86 833.488 1038.15L831.403 1036.77L829.319 1035.39C828.217 1037.05 827.093 1038.69 825.947 1040.3L827.984 1041.75ZM834.62 1031.73L836.749 1033.04C837.779 1031.37 838.788 1029.67 839.776 1027.95L837.607 1026.71L835.439 1025.46C834.477 1027.14 833.494 1028.79 832.492 1030.42L834.62 1031.73ZM840.47 1021.53L842.676 1022.71C843.621 1020.93 844.545 1019.14 845.447 1017.31L843.206 1016.2L840.964 1015.1C840.085 1016.87 839.185 1018.63 838.264 1020.36L840.47 1021.53ZM845.813 1010.72L848.087 1011.76C848.934 1009.9 849.76 1008.03 850.563 1006.12L848.26 1005.15L845.957 1004.18C845.172 1006.04 844.366 1007.87 843.539 1009.68L845.813 1010.72ZM850.431 999.801L852.76 1000.71C853.473 998.884 854.166 997.035 854.84 995.162L852.488 994.316L850.136 993.469C849.477 995.3 848.799 997.108 848.102 998.892L850.431 999.801ZM854.43 988.69L856.804 989.475C857.439 987.556 858.054 985.613 858.649 983.647L856.256 982.922L853.863 982.198C853.28 984.124 852.678 986.026 852.057 987.905L854.43 988.69ZM857.964 977.012L860.374 977.676C860.652 976.668 860.924 975.654 861.192 974.634L858.773 974L856.355 973.366C856.093 974.366 855.826 975.36 855.554 976.348L857.964 977.012ZM858.773 974L861.192 974.634C861.459 973.617 861.715 972.602 861.961 971.59L859.532 970.999L857.102 970.409C856.864 971.392 856.615 972.377 856.355 973.366L858.773 974ZM860.865 965.043L863.314 965.544C863.724 963.538 864.093 961.542 864.422 959.555L861.956 959.146L859.489 958.738C859.171 960.663 858.813 962.597 858.415 964.542L860.865 965.043ZM862.809 953.308L865.289 953.622C865.538 951.654 865.748 949.694 865.919 947.744L863.428 947.526L860.938 947.308C860.773 949.194 860.57 951.089 860.329 952.994L862.809 953.308ZM863.832 941.476L866.329 941.591C866.424 939.543 866.475 937.505 866.483 935.476L863.983 935.465L861.483 935.455C861.475 937.414 861.426 939.382 861.335 941.361L863.832 941.476ZM863.885 929.513L866.383 929.419C866.308 927.41 866.191 925.41 866.033 923.42L863.541 923.618L861.049 923.815C861.201 925.737 861.314 927.667 861.387 929.607L863.885 929.513ZM862.945 917.689L865.427 917.387C865.181 915.369 864.893 913.36 864.564 911.36L862.098 911.766L859.631 912.172C859.948 914.103 860.226 916.043 860.463 917.991L862.945 917.689ZM861.007 905.897L863.455 905.39C863.045 903.409 862.594 901.438 862.104 899.475L859.679 900.081L857.253 900.686C857.727 902.584 858.163 904.49 858.559 906.404L861.007 905.897ZM858.123 894.337L860.523 893.636C859.96 891.708 859.36 889.788 858.722 887.877L856.35 888.668L853.979 889.46C854.597 891.312 855.179 893.171 855.723 895.037L858.123 894.337ZM854.358 883.046L856.698 882.168C855.987 880.273 855.24 878.387 854.458 876.508L852.15 877.469L849.842 878.43C850.602 880.255 851.327 882.086 852.017 883.925L854.358 883.046ZM849.748 871.969L852.022 870.93C851.198 869.125 850.341 867.328 849.452 865.538L847.213 866.649L844.973 867.76C845.839 869.504 846.672 871.253 847.475 873.008L849.748 871.969ZM844.489 861.366L846.693 860.187C845.743 858.409 844.761 856.639 843.75 854.875L841.581 856.118L839.412 857.361C840.4 859.084 841.357 860.812 842.284 862.545L844.489 861.366ZM838.493 850.903L840.627 849.6C839.596 847.913 838.538 846.231 837.453 844.554L835.354 845.912L833.255 847.27C834.317 848.911 835.352 850.557 836.36 852.207L838.493 850.903ZM832.084 840.99L834.15 839.582C833.023 837.93 831.871 836.282 830.694 834.639L828.662 836.095L826.629 837.551C827.784 839.163 828.914 840.779 830.019 842.399L832.084 840.99ZM825.091 831.225L827.091 829.724C825.88 828.11 824.646 826.501 823.389 824.895L821.42 826.436L819.452 827.977C820.688 829.556 821.901 831.139 823.091 832.725L825.091 831.225ZM817.762 821.853L819.701 820.275C818.451 818.739 817.18 817.206 815.89 815.676L813.979 817.289L812.068 818.901C813.34 820.408 814.592 821.918 815.823 823.431L817.762 821.853ZM810.076 812.742L811.959 811.097C810.629 809.574 809.279 808.054 807.911 806.537L806.054 808.211L804.198 809.886C805.549 811.384 806.881 812.884 808.192 814.386L810.076 812.742ZM802.006 803.79L803.837 802.088C802.502 800.652 801.151 799.219 799.784 797.787L797.976 799.514L796.168 801.241C797.52 802.656 798.856 804.073 800.174 805.492L802.006 803.79ZM793.849 795.249L795.634 793.499C794.235 792.072 792.82 790.647 791.39 789.224L789.627 790.995L787.863 792.767C789.279 794.177 790.679 795.587 792.064 796.999L793.849 795.249ZM785.312 786.751L787.055 784.959C785.618 783.561 784.167 782.165 782.702 780.771L780.978 782.581L779.255 784.392C780.707 785.775 782.145 787.158 783.569 788.543L785.312 786.751ZM776.701 778.551L778.407 776.723C776.962 775.375 775.505 774.028 774.036 772.682L772.347 774.526L770.659 776.369C772.117 777.705 773.563 779.041 774.995 780.378L776.701 778.551ZM767.92 770.506L769.592 768.648C768.099 767.304 766.594 765.961 765.077 764.618L763.42 766.49L761.763 768.362C763.27 769.696 764.765 771.029 766.247 772.364L767.92 770.506ZM758.853 762.479L760.496 760.594C759.021 759.309 757.536 758.024 756.042 756.74L754.412 758.636L752.783 760.532C754.269 761.809 755.745 763.086 757.21 764.363L758.853 762.479ZM749.912 754.794L751.529 752.888C750.016 751.604 748.493 750.32 746.961 749.037L745.355 750.953L743.75 752.87C745.274 754.147 746.79 755.424 748.295 756.701L749.912 754.794ZM740.743 747.112L742.337 745.187C740.787 743.903 739.229 742.62 737.662 741.336L736.077 743.27L734.493 745.204C736.054 746.482 737.605 747.76 739.148 749.038L740.743 747.112ZM731.437 739.487L733.012 737.546C731.486 736.308 729.952 735.069 728.411 733.83L726.844 735.779L725.278 737.727C726.813 738.962 728.342 740.196 729.862 741.429L731.437 739.487ZM722.208 732.067L723.767 730.113C722.212 728.873 720.65 727.632 719.082 726.391L717.53 728.352L715.979 730.312C717.543 731.55 719.1 732.786 720.65 734.022L722.208 732.067ZM712.813 724.632L714.357 722.666C712.776 721.424 711.189 720.181 709.596 718.936L708.057 720.907L706.519 722.877C708.108 724.118 709.691 725.358 711.268 726.598L712.813 724.632ZM703.363 717.251L704.896 715.276C703.339 714.067 701.777 712.857 700.21 711.646L698.681 713.624L697.153 715.603C698.717 716.811 700.276 718.019 701.829 719.225L703.363 717.251ZM693.97 709.991L695.494 708.01C693.918 706.797 692.336 705.582 690.75 704.366L689.229 706.35L687.708 708.334C689.292 709.548 690.871 710.761 692.445 711.972L693.97 709.991ZM684.462 702.701L685.98 700.715C684.386 699.496 682.787 698.277 681.185 697.055L679.669 699.044L678.154 701.032C679.754 702.252 681.351 703.471 682.944 704.688L684.462 702.701ZM674.936 695.44L676.45 693.45C674.878 692.254 673.303 691.057 671.725 689.858L670.213 691.849L668.7 693.84C670.278 695.038 671.852 696.235 673.423 697.429L674.936 695.44ZM665.47 688.248L666.981 686.257C665.397 685.055 663.809 683.851 662.22 682.645L660.709 684.637L659.198 686.629C660.788 687.834 662.375 689.038 663.958 690.24L665.47 688.248ZM655.932 681.014L657.443 679.022C655.848 677.813 654.252 676.601 652.652 675.388L651.141 677.379L649.63 679.371C651.229 680.584 652.827 681.796 654.421 683.006L655.932 681.014ZM646.392 673.773L647.904 671.782C646.329 670.586 644.753 669.388 643.175 668.187L641.661 670.177L640.148 672.167C641.727 673.368 643.304 674.567 644.879 675.764L646.392 673.773ZM636.922 666.568L638.437 664.579C636.857 663.374 635.275 662.167 633.692 660.958L632.174 662.944L630.656 664.931C632.241 666.141 633.824 667.35 635.406 668.556L636.922 666.568ZM627.42 659.306L628.941 657.322C627.356 656.108 625.771 654.891 624.185 653.672L622.661 655.654L621.137 657.636C622.725 658.857 624.313 660.075 625.899 661.291L627.42 659.306ZM617.925 652.005L619.452 650.026C617.885 648.816 616.317 647.604 614.749 646.389L613.218 648.365L611.686 650.341C613.257 651.558 614.827 652.773 616.397 653.984L617.925 652.005ZM608.511 644.708L610.047 642.736C608.479 641.515 606.912 640.292 605.346 639.066L603.805 641.035L602.264 643.004C603.834 644.232 605.404 645.458 606.975 646.681L608.511 644.708ZM599.101 637.344L600.647 635.38C599.082 634.148 597.518 632.913 595.954 631.675L594.402 633.635L592.851 635.596C594.418 636.836 595.986 638.074 597.555 639.309L599.101 637.344ZM589.714 629.913L591.272 627.957C589.721 626.722 588.172 625.483 586.624 624.242L585.06 626.192L583.495 628.142C585.048 629.387 586.602 630.629 588.157 631.868L589.714 629.913ZM580.413 622.452L581.984 620.507C580.439 619.259 578.896 618.008 577.355 616.753L575.777 618.692L574.198 620.631C575.745 621.89 577.293 623.145 578.842 624.397L580.413 622.452ZM571.152 614.912L572.737 612.979C571.2 611.718 569.665 610.453 568.133 609.185L566.539 611.11L564.945 613.036C566.483 614.309 568.023 615.579 569.566 616.844L571.152 614.912ZM561.94 607.288L563.543 605.369C562.018 604.096 560.496 602.819 558.978 601.539L557.366 603.45L555.755 605.362C557.28 606.647 558.808 607.929 560.338 609.207L561.94 607.288ZM552.811 599.592L554.431 597.688C552.918 596.401 551.409 595.11 549.903 593.815L548.273 595.71L546.643 597.606C548.156 598.907 549.671 600.203 551.19 601.496L552.811 599.592ZM543.755 591.805L545.395 589.918C543.896 588.616 542.401 587.309 540.909 585.998L539.259 587.876L537.609 589.754C539.107 591.071 540.61 592.384 542.116 593.692L543.755 591.805ZM534.785 583.923L536.446 582.054C534.961 580.734 533.48 579.41 532.003 578.082L530.332 579.941L528.66 581.799C530.144 583.134 531.632 584.465 533.124 585.791L534.785 583.923ZM525.9 575.93L527.584 574.082C526.115 572.744 524.651 571.402 523.191 570.056L521.496 571.893L519.801 573.73C521.268 575.084 522.74 576.433 524.217 577.778L525.9 575.93ZM517.12 567.829L518.828 566.003C517.378 564.648 515.933 563.288 514.494 561.924L512.774 563.738L511.054 565.553C512.502 566.925 513.955 568.293 515.413 569.656L517.12 567.829ZM508.459 559.619L510.192 557.817C508.762 556.442 507.338 555.063 505.919 553.679L504.173 555.468L502.427 557.257C503.855 558.65 505.288 560.038 506.727 561.421L508.459 559.619ZM499.907 551.274L501.667 549.498C500.255 548.099 498.85 546.696 497.45 545.288L495.677 547.05L493.903 548.812C495.312 550.229 496.727 551.642 498.148 553.05L499.907 551.274ZM491.484 542.795L493.271 541.048C491.885 539.629 490.505 538.206 489.132 536.777L487.329 538.51L485.527 540.242C486.91 541.681 488.3 543.115 489.696 544.543L491.484 542.795ZM483.215 534.193L485.033 532.476C483.673 531.038 482.321 529.593 480.975 528.144L479.143 529.845L477.311 531.545C478.666 533.006 480.029 534.461 481.398 535.91L483.215 534.193ZM475.092 525.44L476.94 523.757C475.602 522.288 474.271 520.814 472.948 519.334L471.085 521.001L469.221 522.667C470.554 524.158 471.896 525.644 473.244 527.124L475.092 525.44ZM467.124 516.527L469.004 514.879C467.697 513.388 466.398 511.892 465.107 510.389L463.211 512.019L461.315 513.648C462.616 515.163 463.926 516.672 465.244 518.175L467.124 516.527ZM459.348 507.475L461.26 505.866C459.987 504.352 458.721 502.832 457.465 501.307L455.535 502.896L453.606 504.486C454.873 506.025 456.15 507.558 457.435 509.085L459.348 507.475ZM451.761 498.264L453.708 496.696C452.463 495.15 451.226 493.598 449.999 492.04L448.035 493.586L446.071 495.133C447.31 496.706 448.558 498.273 449.815 499.833L451.761 498.264ZM444.365 488.871L446.346 487.347C445.138 485.776 443.94 484.199 442.751 482.616L440.752 484.117L438.753 485.618C439.953 487.217 441.163 488.809 442.383 490.395L444.365 488.871ZM437.198 479.325L439.215 477.848C438.047 476.252 436.888 474.649 435.74 473.041L433.705 474.493L431.67 475.945C432.83 477.571 434.001 479.19 435.181 480.802L437.198 479.325ZM430.269 469.614L432.322 468.187C431.191 466.56 430.071 464.926 428.962 463.285L426.891 464.685L424.82 466.086C425.941 467.744 427.073 469.396 428.216 471.041L430.269 469.614ZM423.578 459.716L425.667 458.343C424.58 456.688 423.504 455.027 422.439 453.359L420.332 454.704L418.224 456.049C419.301 457.736 420.389 459.416 421.489 461.089L423.578 459.716ZM417.154 449.65L419.28 448.334C418.238 446.652 417.208 444.963 416.19 443.266L414.047 444.553L411.903 445.839C412.933 447.556 413.975 449.264 415.029 450.966L417.154 449.65ZM411.012 439.414L413.173 438.158C412.181 436.45 411.201 434.735 410.233 433.012L408.053 434.237L405.874 435.461C406.854 437.205 407.846 438.941 408.85 440.67L411.012 439.414ZM405.169 429.015L407.366 427.822C406.423 426.085 405.492 424.34 404.575 422.588L402.36 423.748L400.145 424.908C401.075 426.682 402.017 428.449 402.972 430.207L405.169 429.015ZM399.629 418.435L401.861 417.309C400.969 415.542 400.091 413.767 399.226 411.984L396.976 413.076L394.727 414.168C395.604 415.973 396.494 417.771 397.397 419.561L399.629 418.435ZM394.405 407.672L396.671 406.615C395.84 404.833 395.022 403.043 394.218 401.246L391.936 402.266L389.654 403.287C390.469 405.109 391.297 406.922 392.139 408.728L394.405 407.672ZM389.549 396.814L391.848 395.83C391.071 394.017 390.308 392.196 389.56 390.367L387.246 391.314L384.932 392.261C385.691 394.115 386.464 395.961 387.251 397.798L389.549 396.814ZM385.027 385.765L387.356 384.856C386.636 383.011 385.93 381.159 385.238 379.298L382.895 380.168L380.551 381.039C381.252 382.926 381.968 384.804 382.698 386.675L385.027 385.765ZM380.85 374.522L383.208 373.69C382.555 371.84 381.917 369.981 381.293 368.114L378.922 368.907L376.551 369.699C377.183 371.592 377.831 373.477 378.493 375.353L380.85 374.522ZM377.09 363.267L379.474 362.514C378.882 360.639 378.305 358.757 377.742 356.866L375.346 357.578L372.95 358.291C373.52 360.209 374.105 362.118 374.706 364.02L377.09 363.267ZM373.693 351.84L376.101 351.168C375.568 349.26 375.051 347.345 374.55 345.421L372.131 346.051L369.711 346.682C370.22 348.634 370.745 350.577 371.285 352.512L373.693 351.84ZM370.662 340.212L373.091 339.623C372.626 337.704 372.176 335.777 371.742 333.842L369.302 334.39L366.863 334.938C367.304 336.901 367.76 338.855 368.232 340.801L370.662 340.212ZM368.059 328.627L370.507 328.12C370.111 326.205 369.729 324.281 369.364 322.35L366.907 322.815L364.451 323.28C364.822 325.24 365.209 327.191 365.611 329.134L368.059 328.627ZM365.848 316.954L368.312 316.53C367.977 314.581 367.657 312.625 367.353 310.66L364.882 311.042L362.412 311.424C362.72 313.417 363.044 315.401 363.384 317.377L365.848 316.954ZM364.012 305.08L366.489 304.739C366.217 302.757 365.96 300.767 365.72 298.768L363.238 299.066L360.756 299.364C360.999 301.391 361.259 303.41 361.535 305.42L364.012 305.08ZM362.583 293.209L365.07 292.951C364.87 291.021 364.685 289.082 364.515 287.136L362.025 287.353L359.534 287.57C359.706 289.543 359.894 291.509 360.097 293.466L362.583 293.209ZM361.558 281.449L364.052 281.272C363.913 279.31 363.789 277.339 363.681 275.36L361.185 275.497L358.689 275.633C358.798 277.639 358.924 279.636 359.065 281.626L361.558 281.449ZM360.905 269.495L363.404 269.399C363.327 267.404 363.266 265.401 363.22 263.389L360.721 263.445L358.222 263.501C358.267 265.539 358.329 267.57 358.407 269.592L360.905 269.495ZM360.633 257.344L363.133 257.328C363.12 255.403 363.123 253.469 363.139 251.528L360.639 251.507L358.139 251.485C358.122 253.451 358.12 255.41 358.133 257.361L360.633 257.344ZM360.734 245.645L363.233 245.704C363.279 243.755 363.34 241.798 363.416 239.834L360.918 239.738L358.42 239.641C358.343 241.631 358.281 243.612 358.235 245.586L360.734 245.645ZM361.191 233.784L363.688 233.918C363.793 231.938 363.914 229.95 364.05 227.955L361.556 227.785L359.062 227.615C358.924 229.635 358.802 231.647 358.695 233.651L361.191 233.784ZM362.012 221.739L364.504 221.945C364.67 219.934 364.852 217.915 365.05 215.888L362.561 215.645L360.073 215.403C359.873 217.454 359.689 219.497 359.521 221.532L362.012 221.739ZM363.174 209.773L365.659 210.049C365.872 208.139 366.098 206.222 366.338 204.298L363.857 203.988L361.377 203.678C361.134 205.625 360.905 207.564 360.69 209.496L363.174 209.773ZM364.624 198.161L367.1 198.504C367.369 196.565 367.651 194.62 367.947 192.667L365.475 192.292L363.003 191.917C362.704 193.892 362.419 195.859 362.148 197.819L364.624 198.161ZM366.411 186.381L368.878 186.787C369.202 184.82 369.541 182.846 369.894 180.865L367.433 180.426L364.972 179.987C364.615 181.99 364.272 183.985 363.944 185.974L366.411 186.381ZM368.542 174.428L370.997 174.898C371.379 172.902 371.776 170.899 372.187 168.888L369.738 168.387L367.288 167.886C366.873 169.917 366.472 171.941 366.086 173.958L368.542 174.428ZM370.934 162.707L373.377 163.237C373.784 161.36 374.203 159.477 374.635 157.588L372.198 157.031L369.761 156.473C369.324 158.381 368.901 160.283 368.49 162.178L370.934 162.707ZM373.539 151.316L375.97 151.901C376.427 149.999 376.898 148.091 377.382 146.176L374.958 145.564L372.534 144.951C372.046 146.884 371.571 148.811 371.108 150.731L373.539 151.316ZM376.455 139.772L378.872 140.411C379.381 138.483 379.904 136.549 380.44 134.608L378.03 133.942L375.621 133.277C375.08 135.235 374.552 137.188 374.038 139.133L376.455 139.772ZM379.686 128.073L382.088 128.765C382.651 126.811 383.226 124.85 383.816 122.883L381.421 122.165L379.026 121.448C378.432 123.432 377.851 125.41 377.283 127.382L379.686 128.073ZM383.159 116.468L385.546 117.21C386.113 115.387 386.69 113.558 387.28 111.724L384.899 110.959L382.519 110.195C381.925 112.044 381.342 113.888 380.771 115.727L383.159 116.468ZM386.709 105.417L389.082 106.204C389.694 104.358 390.318 102.507 390.954 100.649L388.589 99.8398L386.223 99.0302C385.583 100.902 384.954 102.769 384.336 104.629L386.709 105.417ZM390.539 94.2289L392.896 95.0606C393.556 93.1919 394.226 91.3174 394.909 89.4371L392.559 88.5837L390.21 87.7304C389.522 89.625 388.845 91.514 388.181 93.3973L390.539 94.2289ZM394.651 82.904L396.993 83.7787C397.7 81.8868 398.419 79.989 399.149 78.0854L396.815 77.1896L394.481 76.2939C393.745 78.2114 393.021 80.1232 392.309 82.0293L394.651 82.904ZM399.051 71.4404L401.377 72.3568C402.105 70.51 402.844 68.6576 403.594 66.7998L401.276 65.8636L398.958 64.9275C398.202 66.7983 397.458 68.6638 396.725 70.5239L399.051 71.4404ZM403.454 60.5322L405.764 61.4868C406.498 59.7108 407.242 57.9298 407.997 56.1438L405.694 55.171L403.391 54.1983C402.631 55.9963 401.882 57.7894 401.143 59.5776L403.454 60.5322ZM407.995 49.78L410.291 50.7707C411.066 48.9746 411.852 47.1735 412.648 45.3673L410.36 44.359L408.072 43.3508C407.271 45.1686 406.48 46.9815 405.7 48.7894L407.995 49.78ZM412.787 38.9079L415.067 39.9335C415.884 38.1172 416.712 36.2958 417.55 34.4692L415.278 33.4265L413.006 32.3837C412.163 34.2216 411.33 36.0544 410.507 37.8823L412.787 38.9079ZM417.833 27.9147L420.097 28.9743C420.956 27.1375 421.827 25.2956 422.707 23.4485L420.451 22.3723L418.194 21.2961C417.308 23.1542 416.433 25.0071 415.568 26.8551L417.833 27.9147ZM423.134 16.7992L425.382 17.8918C425.834 16.9627 426.288 16.0323 426.745 15.1006L424.5 14L422.255 12.8994C421.796 13.8364 421.339 14.7722 420.885 15.7067L423.134 16.7992Z" fill="#FED883"/>
</svg>
